<svg width="132" height="124" viewBox="0 0 132 124" fill="none" xmlns="http://www.w3.org/2000/svg">
<g opacity="0.5">
<path d="M47.8082 49.1084C47.745 49.1687 47.6477 49.2633 47.5163 49.3923C47.4015 49.5025 47.2452 49.6598 47.0474 49.8643C46.8546 50.0603 46.6019 50.3157 46.2893 50.6303C46.3641 50.4516 46.3866 50.3337 46.3569 50.2767C46.3321 50.2112 46.2901 50.1755 46.2308 50.1697C46.1563 50.1609 46.0645 50.1818 45.9554 50.2327C45.8917 50.2642 45.7515 50.3198 45.5347 50.3996C45.3161 50.4726 45.0403 50.5609 44.7073 50.6646C44.381 50.7664 44.0076 50.8809 43.587 51.008C43.1664 51.1352 42.7214 51.2652 42.2519 51.3983C42.5263 52.5299 42.7724 53.5427 42.9903 54.4369C43.2083 55.331 43.3992 56.1242 43.563 56.8163C43.7335 57.5067 43.8797 58.1061 44.0016 58.6147C44.1301 59.1215 44.2389 59.5542 44.3277 59.9128C44.5312 60.7531 44.6763 61.3348 44.7629 61.658C44.8229 61.9089 44.8551 62.1637 44.8594 62.4223C44.8615 62.6455 44.8411 62.8927 44.7984 63.1639C44.7538 63.4284 44.6567 63.6854 44.507 63.9348C44.6385 63.9139 44.7624 63.8916 44.8787 63.8676C44.9931 63.837 45.1076 63.8063 45.2221 63.7756C45.5385 63.6908 45.8177 63.6016 46.0596 63.5079C46.3064 63.4057 46.5162 63.3134 46.689 63.231C46.8617 63.1487 46.9975 63.0762 47.0962 63.0137C47.2016 62.9493 47.266 62.9068 47.2893 62.8862C46.9974 63.2242 46.7571 63.5122 46.5683 63.7504C46.3796 63.9886 46.2063 64.1902 46.0485 64.3552C45.8888 64.5134 45.7253 64.6438 45.5579 64.7464C45.3906 64.849 45.1857 64.9327 44.9433 64.9977C44.6202 65.0843 44.3405 65.1448 44.1044 65.1792C43.875 65.2118 43.6458 65.2588 43.4169 65.3201C43.3024 65.3508 43.1864 65.3891 43.0688 65.435C42.9562 65.4724 42.8303 65.5278 42.6912 65.6011C42.8364 65.389 42.9612 65.168 43.0656 64.938C43.1748 64.6994 43.2463 64.4277 43.2801 64.1228C43.3139 63.8179 43.3096 63.4654 43.2674 63.0654C43.2251 62.6654 43.131 62.1927 42.9848 61.6474L40.3897 51.9622C39.8076 52.1326 39.2355 52.3003 38.6736 52.4653C38.1183 52.6285 37.617 52.7773 37.1695 52.9116C36.7202 53.0392 36.3425 53.1513 36.0364 53.2477C35.737 53.3424 35.5478 53.4039 35.4689 53.4323C35.2858 53.503 35.1493 53.5323 35.0595 53.5203C34.9697 53.5083 34.9191 53.4677 34.9078 53.3986C34.8947 53.3227 34.9217 53.2217 34.9889 53.0954C35.0494 52.971 35.1417 52.8308 35.2659 52.6748L36.3816 51.3043C36.3131 51.4525 36.3038 51.5524 36.3537 51.604C36.4103 51.6538 36.4835 51.6847 36.5733 51.6967C36.6766 51.7051 36.8066 51.6919 36.9632 51.6571C37.071 51.6283 37.2889 51.5663 37.617 51.4712C37.9451 51.376 38.3439 51.2619 38.8134 51.1289C39.2878 50.9874 39.8136 50.8357 40.3909 50.6738C40.9663 50.5052 41.5518 50.3338 42.1474 50.1598C42.7412 49.9791 43.3258 49.8044 43.9012 49.6358C44.4766 49.4671 44.9991 49.3163 45.4686 49.1833C45.943 49.0418 46.3443 48.9234 46.6724 48.8283C46.9987 48.7264 47.2148 48.6577 47.3207 48.6221C47.5276 48.5594 47.6836 48.5357 47.7887 48.5508C47.8938 48.566 47.9587 48.6063 47.9835 48.6718C48.015 48.7355 48.0095 48.8092 47.9669 48.8927C47.9311 48.9745 47.8782 49.0464 47.8082 49.1084ZM47.2893 62.8862L47.2866 62.8761C47.2915 62.8675 47.2974 62.8623 47.3041 62.8605L47.2893 62.8862ZM49.8721 44.8535C49.9199 44.9778 49.9717 45.1443 50.0276 45.3531C50.0836 45.5618 50.1494 45.8075 50.2252 46.0903C50.6437 47.6523 51.0162 49.1906 51.3427 50.7051C51.674 52.2111 51.9843 53.7192 52.2735 55.2292C52.4179 54.772 52.5875 54.3008 52.7823 53.8156C52.9837 53.3287 53.2129 52.8776 53.4696 52.4624C53.7246 52.0405 54.0102 51.6789 54.3264 51.3777C54.6408 51.0698 54.9898 50.8644 55.3736 50.7616C55.6901 50.6768 55.9743 50.6872 56.2263 50.7929C56.4783 50.8986 56.6974 51.0563 56.8835 51.2662C57.0697 51.4762 57.2242 51.7162 57.3471 51.9863C57.4767 52.2547 57.574 52.51 57.6389 52.7524C57.7761 53.2641 57.8921 53.7779 57.987 54.2936C58.0801 54.8027 58.1689 55.3093 58.2535 55.8134C58.3448 56.3157 58.4361 56.8181 58.5274 57.3204C58.6169 57.816 58.7266 58.3061 58.8565 58.7909C58.8925 58.9256 58.9353 59.0584 58.9849 59.1895C59.0344 59.3205 59.0981 59.437 59.1759 59.5388C59.2519 59.6339 59.3402 59.7076 59.4409 59.76C59.5464 59.8039 59.6699 59.8069 59.8113 59.769C59.9998 59.7185 60.171 59.5897 60.3247 59.3825C60.4834 59.1668 60.6189 58.932 60.7313 58.6782C60.8487 58.4159 60.9467 58.1623 61.0254 57.9175C61.1091 57.6641 61.1726 57.4703 61.216 57.336L61.2428 58.3247C61.0241 58.6936 60.8415 58.9951 60.695 59.2292C60.5533 59.4547 60.4397 59.6367 60.3541 59.7751C60.252 59.9324 60.1686 60.0521 60.104 60.1344C60.0413 60.2234 59.9646 60.3413 59.8741 60.4883C59.7836 60.6352 59.6787 60.7824 59.5595 60.9298C59.4469 61.0754 59.3198 61.2069 59.1781 61.3242C59.0448 61.4465 58.8974 61.5293 58.7359 61.5726C58.6012 61.6087 58.4847 61.6182 58.3863 61.6013C58.288 61.5844 58.1984 61.5326 58.1174 61.446C58.0365 61.3595 57.9609 61.239 57.8907 61.0847C57.8254 60.9217 57.7585 60.7124 57.6899 60.4565C57.5203 59.8236 57.3721 59.2031 57.2452 58.5948C57.1232 57.978 57.004 57.3714 56.8874 56.7748C56.7709 56.1782 56.6494 55.5902 56.523 55.0107C56.3966 54.4312 56.2475 53.8613 56.0757 53.3012C56.019 53.1432 55.938 53.0025 55.8328 52.8792C55.7258 52.7491 55.5972 52.6464 55.4472 52.5712C55.3038 52.4941 55.1442 52.4503 54.9682 52.4398C54.7903 52.4225 54.6099 52.4492 54.4268 52.5199C54.2436 52.5906 54.0729 52.6941 53.9146 52.8303C53.763 52.9647 53.6231 53.1429 53.495 53.3649C53.3736 53.585 53.2623 53.8566 53.1612 54.1795C53.0669 54.5007 52.9872 54.8901 52.9222 55.3477C52.8968 55.5493 52.8735 55.772 52.8523 56.0159C52.8305 56.231 52.8111 56.4815 52.7939 56.7676C52.7749 57.0469 52.7641 57.3565 52.7613 57.6964L53.5994 61.834L52.3218 63.5294C52.0813 62.2011 51.8456 60.904 51.6147 59.6381C51.3886 58.3636 51.1555 57.1164 50.9151 55.8963C50.673 54.6695 50.4185 53.464 50.1518 52.2798C49.8899 51.0872 49.602 49.9051 49.2881 48.7336C49.1763 48.3161 49.0634 47.9351 48.9494 47.5904C48.8421 47.2439 48.7364 46.9438 48.6324 46.6903C48.5333 46.4282 48.4367 46.2159 48.3427 46.0535C48.2487 45.8911 48.159 45.7852 48.0736 45.7359C47.9546 45.6957 47.8277 45.6936 47.6931 45.7296C47.5786 45.7603 47.4429 45.8328 47.2859 45.947C47.1338 46.0527 46.967 46.2381 46.7854 46.5032C46.8944 46.3442 47.0261 46.1357 47.1807 45.8777C47.3353 45.6198 47.5018 45.366 47.6802 45.1161C47.8568 44.8595 48.0415 44.6332 48.2344 44.4372C48.4254 44.2345 48.6118 44.1088 48.7936 44.0601C48.9888 44.0077 49.1846 44.0383 49.381 44.1516C49.5773 44.265 49.7411 44.4989 49.8721 44.8535ZM67.3134 55.8538C67.0648 56.3533 66.8305 56.7986 66.6105 57.1895C66.3955 57.5718 66.2015 57.898 66.0285 58.1681C65.8241 58.4826 65.6376 58.7563 65.4691 58.9891C65.0029 59.6191 64.551 59.9928 64.1133 60.1101C63.8642 60.1768 63.6307 60.1672 63.4129 60.0813C63.2035 60.0002 63.007 59.8725 62.8231 59.6981C62.6393 59.5236 62.4718 59.3159 62.3206 59.075C62.1694 58.8341 62.0351 58.5886 61.9176 58.3387C61.8051 58.0802 61.7062 57.8325 61.6211 57.5955C61.5427 57.3567 61.4809 57.1532 61.4358 56.9849C61.3149 56.5338 61.2346 56.0321 61.1949 55.4799C61.1619 54.9259 61.1736 54.3635 61.2299 53.7927C61.2912 53.2134 61.4026 52.646 61.564 52.0904C61.7236 51.5281 61.939 51.0121 62.21 50.5426C62.486 50.0645 62.8165 49.6549 63.2013 49.3136C63.5929 48.9706 64.0479 48.7296 64.5663 48.5907C64.7077 48.5528 64.8327 48.5481 64.9414 48.5767C65.0483 48.5986 65.1438 48.6452 65.2278 48.7165C65.3119 48.7878 65.3784 48.8746 65.4275 48.9769C65.4833 49.0774 65.5265 49.1849 65.5572 49.2994C65.6366 49.5956 65.6486 49.9099 65.5933 50.2422C65.5381 50.5745 65.4347 50.9161 65.2834 51.267C65.137 51.6093 64.956 51.9572 64.7405 52.3109C64.5231 52.6578 64.2896 52.9982 64.0399 53.3321C63.7951 53.6574 63.5468 53.9693 63.2948 54.2678C63.0428 54.5662 62.8123 54.8372 62.6034 55.0808L62.6629 55.303C62.708 55.4713 62.7698 55.6749 62.8482 55.9137C62.9315 56.1439 63.0286 56.3849 63.1393 56.6366C63.255 56.8799 63.3842 57.1195 63.5268 57.3555C63.6694 57.5915 63.825 57.7951 63.9936 57.9665C64.1622 58.1378 64.341 58.2666 64.5302 58.3531C64.7242 58.431 64.9256 58.442 65.1343 58.386C65.2286 58.3608 65.3226 58.3211 65.4164 58.2672C65.5084 58.2064 65.5949 58.1255 65.6761 58.0244C65.8132 57.8361 65.9595 57.5876 66.115 57.279C66.2458 57.013 66.3897 56.675 66.5468 56.2648C66.7039 55.8547 66.8602 55.3474 67.0158 54.7428L67.3134 55.8538ZM63.8384 50.3985C63.7323 50.3259 63.6117 50.2933 63.4766 50.3006C63.3415 50.308 63.2052 50.3517 63.0679 50.4318C62.9374 50.5101 62.8167 50.6254 62.706 50.7777C62.602 50.9283 62.5282 51.1104 62.4844 51.3242C62.4219 51.6296 62.3775 52.0564 62.3512 52.6047C62.3232 53.1462 62.3629 53.7525 62.4706 54.4237C62.6518 54.238 62.8343 54.0303 63.0181 53.8007C63.2019 53.571 63.3729 53.334 63.5311 53.0895C63.6961 52.8433 63.8356 52.5966 63.9498 52.3495C64.069 52.0939 64.1477 51.8491 64.186 51.6151C64.2293 51.3726 64.2272 51.1495 64.1798 50.9457C64.1306 50.7352 64.0168 50.5528 63.8384 50.3985ZM20.5782 89.0355C20.2755 89.3331 19.9772 89.5935 19.6834 89.8165C19.3963 90.0378 19.1222 90.2267 18.8611 90.3832C18.5999 90.5398 18.3594 90.6656 18.1395 90.7606C17.9264 90.8538 17.739 90.922 17.5774 90.9653L16.0625 91.3713L16.9982 90.4602C17.073 90.2814 17.1444 90.1036 17.2125 89.9266C17.2805 89.7496 17.3344 89.5872 17.3742 89.4394C17.4238 89.2746 17.4667 89.1116 17.5029 88.9503C17.598 88.4702 17.7237 87.7005 17.88 86.6411C17.9401 86.192 18.0097 85.6574 18.0889 85.0373C18.1748 84.4153 18.27 83.6934 18.3746 82.8716C18.4791 82.0498 18.5902 81.118 18.708 80.0762C18.8257 79.0344 18.9565 77.8664 19.1005 76.5722L20.4247 74.4855L27.98 86.8466C28.2827 86.8449 28.5646 86.8198 28.8259 86.7715C29.0938 86.7213 29.3423 86.6656 29.5712 86.6042C29.6924 86.5718 29.8035 86.542 29.9045 86.5149C30.0037 86.4811 30.0894 86.4509 30.1617 86.4244C30.2407 86.396 30.3154 86.3651 30.3858 86.3318C30.0458 86.625 29.75 86.881 29.4984 87.1C29.245 87.3122 29.0164 87.4962 28.8128 87.6518C28.6158 87.8055 28.4261 87.9322 28.2434 88.0316C28.0676 88.1293 27.882 88.2042 27.6867 88.2566L26.0708 88.6895L26.5067 88.2155L23.4566 83.2959C23.2758 83.4021 23.0647 83.5164 22.8233 83.6388C22.58 83.7545 22.2854 83.8803 21.9394 84.0163C21.6001 84.1506 21.1993 84.2976 20.7371 84.4576C20.2815 84.6157 19.751 84.7903 19.1455 84.9814C19.0233 85.6564 18.9066 86.2578 18.7955 86.7855C18.6843 87.3132 18.5804 87.774 18.4839 88.1679C18.3874 88.5618 18.2967 88.8964 18.2117 89.1717C18.1334 89.4453 18.0628 89.6663 17.9997 89.8347C18.1195 89.8242 18.252 89.8068 18.397 89.7824C18.5402 89.7512 18.6825 89.7167 18.8238 89.6788C19.0393 89.6211 19.2496 89.5575 19.4547 89.4881C19.6647 89.4102 19.8546 89.3377 20.0242 89.2706C20.219 89.1895 20.4036 89.1112 20.5782 89.0355ZM20.5606 83.3142C21.4695 83.0706 22.2889 82.8295 23.0187 82.5906L20.0988 77.8742C19.9682 79.0566 19.8406 80.1155 19.716 81.0509C19.5981 81.9845 19.4791 82.8463 19.3588 83.6362L20.5606 83.3142ZM39.9848 81.4759L40.0475 82.6389C39.7669 83.0461 39.5325 83.3831 39.3442 83.65C39.1609 83.9084 39.0114 84.118 38.8957 84.2789C38.7586 84.4672 38.6503 84.6153 38.571 84.7231C38.4817 84.8481 38.3867 84.9782 38.2859 85.1134C38.1832 85.242 38.0711 85.3622 37.9495 85.4742C37.8347 85.5843 37.712 85.6785 37.5815 85.7568C37.4594 85.84 37.3318 85.8887 37.1984 85.9027C36.7904 85.9688 36.3762 85.2174 35.9558 83.6487C35.7736 82.9687 35.5809 82.1688 35.3778 81.249C35.2745 81.6447 35.1733 82.0074 35.074 82.3371C34.9796 82.6582 34.8913 82.9345 34.8089 83.1658C34.7154 83.4362 34.6257 83.6804 34.5397 83.8982C34.3396 84.3632 34.1363 84.7893 33.9297 85.1766C33.7214 85.5571 33.5191 85.8928 33.3228 86.1835C33.1265 86.4742 32.9411 86.7115 32.7666 86.8954C32.5971 87.0707 32.4502 87.1822 32.3259 87.23C32.2016 87.2777 32.0557 87.2988 31.8882 87.2931C31.7207 87.2875 31.5413 87.2237 31.3499 87.1018C31.1634 86.9714 30.9714 86.7667 30.7739 86.4876C30.5832 86.2068 30.3991 85.8159 30.2216 85.315C30.1811 85.2177 30.1473 85.1185 30.1202 85.0175C30.0914 84.9098 30.0634 84.8054 30.0364 84.7044C29.9047 84.2129 29.8046 83.6913 29.7361 83.1396C29.6744 82.586 29.6434 82.0531 29.6433 81.5408C29.648 81.0199 29.6856 80.5408 29.7561 80.1034C29.8314 79.6574 29.9412 79.2997 30.0855 79.0301C30.1903 78.8288 30.3294 78.6075 30.5029 78.3662C30.6764 78.1249 30.8676 77.8824 31.0765 77.6388C31.2904 77.3867 31.5137 77.1428 31.7465 76.9073C31.9774 76.665 32.2003 76.4465 32.4151 76.2518C32.63 76.0572 32.8276 75.8924 33.0079 75.7575C33.1882 75.6225 33.3363 75.5287 33.4521 75.4761L33.6541 75.422C33.7214 75.4039 33.8022 75.3823 33.8964 75.357C33.9907 75.3318 34.1002 75.3096 34.225 75.2906C34.1098 74.672 33.9957 74.0712 33.8827 73.4881C33.7765 72.9031 33.6692 72.3546 33.5609 71.8424C33.4574 71.3217 33.359 70.8466 33.2655 70.417C33.1721 69.9874 33.0847 69.6211 33.0036 69.3181C32.9314 69.0488 32.8537 68.8532 32.7705 68.7311C32.6922 68.6006 32.5924 68.4974 32.4711 68.4217C32.3961 68.3841 32.313 68.3702 32.2218 68.3802C32.1442 68.3866 32.0517 68.4186 31.9445 68.4762C31.8372 68.5338 31.7188 68.6305 31.5892 68.7662C31.8695 68.4386 32.1057 68.1624 32.2981 67.9376C32.4904 67.7129 32.6514 67.5327 32.781 67.3969C32.9254 67.2356 33.0467 67.1092 33.1449 67.018C33.2647 66.8993 33.3919 66.8219 33.5265 66.7858C33.6661 66.7412 33.8033 66.755 33.9381 66.8271C34.0711 66.8925 34.1925 67.0223 34.3022 67.2166C34.412 67.4109 34.4995 67.6833 34.5645 68.0339C34.5912 68.2144 34.643 68.5289 34.7199 68.9773C34.8017 69.4172 34.8968 69.9474 35.0053 70.5678C35.112 71.1814 35.2316 71.8566 35.364 72.5932C35.5032 73.3281 35.6435 74.0807 35.785 74.851C35.9265 75.6213 36.0661 76.3849 36.204 77.1417C36.3467 77.89 36.4827 78.586 36.6119 79.2297C36.7393 79.8667 36.8536 80.4278 36.9547 80.9131C37.0559 81.3983 37.1371 81.7554 37.1984 81.9843C37.3843 82.6778 37.5757 83.2038 37.7728 83.5623C37.9699 83.9208 38.193 84.0667 38.4421 84C38.6172 83.9531 38.8114 83.7892 39.0248 83.5083C39.1785 83.3011 39.3186 83.0832 39.4449 82.8545C39.5583 82.6581 39.6662 82.4416 39.7688 82.2048C39.8695 81.9614 39.9415 81.7184 39.9848 81.4759ZM34.5056 76.7417C34.0885 76.774 33.7325 76.8189 33.4376 76.8763C33.1409 76.9269 32.8949 76.9784 32.6996 77.0307C32.3226 77.1318 32.0146 77.3153 31.7756 77.5814C31.5415 77.839 31.3564 78.1447 31.2203 78.4987C31.0843 78.8527 30.9927 79.238 30.9456 79.6548C30.9052 80.0697 30.8927 80.4808 30.908 80.888C30.9233 81.2952 30.9586 81.6827 31.0138 82.0503C31.0739 82.4094 31.1383 82.7169 31.2068 82.9728C31.2357 83.0805 31.277 83.221 31.3306 83.3942C31.3892 83.559 31.4581 83.7353 31.5373 83.9234C31.6215 84.1029 31.7167 84.283 31.8229 84.4638C31.929 84.6447 32.0442 84.805 32.1683 84.945C32.2906 85.0782 32.4225 85.18 32.564 85.2503C32.7037 85.3139 32.851 85.3249 33.0058 85.2834C33.1809 85.2365 33.3598 85.0695 33.5427 84.7824C33.7323 84.4934 33.9537 84.0408 34.2071 83.4245C34.3253 83.1114 34.434 82.7359 34.5331 82.298C34.6198 81.9212 34.6998 81.4523 34.7732 80.8914C34.8466 80.3306 34.8939 79.672 34.915 78.9159L34.5056 76.7417ZM44.6896 82.3909L43.8229 84.6906C43.5928 83.7781 43.3208 82.9381 43.0069 82.1707C42.698 81.3947 42.4017 80.72 42.1182 80.1465C41.7874 79.4775 41.4492 78.8753 41.1037 78.3401C40.7812 77.8636 40.4981 77.4668 40.2544 77.1497C40.0088 76.8258 39.7899 76.5741 39.5975 76.3948C39.41 76.2069 39.2431 76.082 39.0966 76.0202C38.9502 75.9585 38.8164 75.9438 38.6952 75.9763C38.5942 76.0033 38.4979 76.0616 38.4065 76.1511C38.3132 76.2338 38.2152 76.3394 38.1125 76.4679C38.1738 76.2928 38.2555 76.0724 38.3576 75.807C38.4663 75.5397 38.5913 75.2789 38.7324 75.0246C38.8803 74.7685 39.043 74.5409 39.2206 74.3417C39.3963 74.1359 39.5818 74.0068 39.7771 73.9545C39.9118 73.9184 40.048 73.9288 40.1859 73.9856C40.3239 74.0425 40.4713 74.1618 40.6282 74.3434C40.7887 74.5385 41.0233 74.8618 41.3318 75.3131C41.6386 75.7577 41.9715 76.2999 42.3305 76.9397C42.6963 77.5778 43.066 78.2978 43.4397 79.0997C43.8115 79.8948 44.1461 80.7397 44.4435 81.6342C44.627 81.0799 44.8117 80.5036 44.9978 79.9053C45.182 79.3003 45.336 78.7034 45.4597 78.1146C45.5883 77.5173 45.6691 76.9436 45.7021 76.3935C45.7351 75.8435 45.6921 75.3463 45.573 74.9019C45.5099 74.6662 45.4164 74.4387 45.2927 74.2193C45.1672 73.9932 45.0008 73.8032 44.7936 73.6494L46.156 71.8664C46.3674 72.1706 46.5227 72.5078 46.6219 72.8781C46.7446 73.3359 46.7977 73.8305 46.7813 74.3616C46.7698 74.8843 46.713 75.4263 46.6108 75.9877C46.5087 76.549 46.3729 77.1194 46.2034 77.6988C46.0388 78.2697 45.8649 78.8323 45.6814 79.3866C45.4962 79.9341 45.3141 80.4664 45.1351 80.9834C44.9611 81.4919 44.8125 81.9611 44.6896 82.3909ZM54.8944 77.8164C54.6458 78.316 54.4115 78.7612 54.1915 79.1521C53.9764 79.5345 53.7824 79.8607 53.6094 80.1307C53.405 80.4453 53.2186 80.719 53.05 80.9517C52.5838 81.5818 52.1319 81.9554 51.6943 82.0727C51.4452 82.1395 51.2117 82.1299 50.9938 82.0439C50.7845 81.9629 50.5879 81.8352 50.404 81.6607C50.2202 81.4863 50.0527 81.2786 49.9015 81.0377C49.7504 80.7967 49.616 80.5513 49.4986 80.3013C49.386 80.0429 49.2872 79.7951 49.202 79.5582C49.1236 79.3194 49.0618 79.1158 49.0167 78.9475C48.8959 78.4964 48.8156 77.9948 48.7758 77.4425C48.7429 76.8885 48.7545 76.3261 48.8109 75.7554C48.8721 75.1761 48.9835 74.6087 49.1449 74.053C49.3045 73.4907 49.5199 72.9748 49.791 72.5052C50.067 72.0272 50.3974 71.6175 50.7822 71.2763C51.1738 70.9332 51.6288 70.6922 52.1472 70.5533C52.2886 70.5154 52.4136 70.5108 52.5223 70.5394C52.6292 70.5613 52.7247 70.6079 52.8087 70.6791C52.8928 70.7504 52.9593 70.8372 53.0084 70.9396C53.0642 71.0401 53.1074 71.1475 53.1381 71.262C53.2175 71.5582 53.2295 71.8725 53.1743 72.2049C53.119 72.5372 53.0157 72.8788 52.8643 73.2296C52.7179 73.5719 52.5369 73.9199 52.3214 74.2735C52.104 74.6204 51.8705 74.9608 51.6208 75.2947C51.3761 75.6201 51.1277 75.932 50.8757 76.2304C50.6237 76.5289 50.3933 76.7999 50.1843 77.0435L50.2439 77.2657C50.289 77.434 50.3507 77.6375 50.4291 77.8763C50.5125 78.1065 50.6095 78.3475 50.7203 78.5993C50.836 78.8425 50.9651 79.0821 51.1077 79.3181C51.2503 79.5541 51.4059 79.7578 51.5745 79.9291C51.7431 80.1004 51.9219 80.2293 52.1111 80.3157C52.3051 80.3936 52.5065 80.4046 52.7152 80.3487C52.8095 80.3234 52.9035 80.2838 52.9973 80.2298C53.0893 80.1691 53.1758 80.0882 53.257 79.987C53.3942 79.7987 53.5405 79.5503 53.6959 79.2416C53.8267 78.9757 53.9706 78.6376 54.1277 78.2275C54.2848 77.8174 54.4412 77.31 54.5967 76.7055L54.8944 77.8164ZM51.4193 72.3612C51.3133 72.2886 51.1927 72.2559 51.0575 72.2633C50.9224 72.2706 50.7862 72.3144 50.6489 72.3944C50.5183 72.4727 50.3977 72.588 50.2869 72.7404C50.1829 72.8909 50.1091 73.0731 50.0653 73.2869C50.0028 73.5922 49.9585 74.0191 49.9322 74.5673C49.9041 75.1089 49.9439 75.7152 50.0515 76.3863C50.2327 76.2007 50.4152 75.993 50.599 75.7633C50.7828 75.5337 50.9538 75.2966 51.112 75.0522C51.277 74.8059 51.4165 74.5593 51.5307 74.3122C51.6499 74.0566 51.7286 73.8118 51.7669 73.5778C51.8102 73.3353 51.8081 73.1121 51.7608 72.9083C51.7116 72.6978 51.5977 72.5154 51.4193 72.3612ZM57.1671 69.6953C57.2467 69.8039 57.3248 69.9742 57.4014 70.2062C57.478 70.4383 57.5569 70.7058 57.6381 71.0088C57.6959 71.2242 57.7538 71.454 57.812 71.6982C57.8702 71.9424 57.926 72.1909 57.9793 72.4436C58.0988 72.1085 58.2333 71.7621 58.3828 71.4046C58.5305 71.0403 58.6929 70.6901 58.8698 70.354C59.0517 70.0094 59.25 69.6857 59.4647 69.3828C59.6794 69.0799 59.9126 68.819 60.1642 68.6C60.4208 68.3725 60.6951 68.198 60.9873 68.0764C61.2844 67.9463 61.6047 67.8893 61.9482 67.9055C62.1377 67.9125 62.3007 67.9554 62.4373 68.0342C62.5806 68.1113 62.7076 68.2216 62.8182 68.3651C62.927 68.502 63.0186 68.6687 63.0929 68.8652C63.174 69.06 63.2461 69.2752 63.3092 69.5109C63.4499 70.036 63.5686 70.5599 63.6653 71.0824C63.7621 71.6049 63.8511 72.1258 63.9326 72.6452C64.0189 73.1561 64.1087 73.6661 64.2018 74.1751C64.2949 74.6842 64.4073 75.1844 64.539 75.6759C64.6292 76.0126 64.7274 76.2713 64.8336 76.4521C64.9465 76.6311 65.0815 76.7176 65.2386 76.7116C65.385 76.6652 65.5328 76.557 65.6821 76.3871C65.8117 76.2514 65.9554 76.0469 66.1131 75.7737C66.2708 75.5005 66.4244 75.1311 66.5738 74.6653L66.6986 75.4545C66.571 75.7052 66.4238 76.0044 66.2572 76.3521C66.0973 76.698 65.9204 77.0341 65.7264 77.3603C65.5373 77.678 65.3306 77.957 65.1064 78.1975C64.8889 78.4362 64.6587 78.5736 64.4159 78.6098C64.151 78.6447 63.9035 78.5559 63.6734 78.3434C63.4414 78.1241 63.2506 77.735 63.1008 77.1762C63.0269 76.9001 62.9504 76.5743 62.8714 76.1985C62.7905 75.8161 62.7119 75.415 62.6355 74.9953C62.5592 74.5756 62.481 74.1491 62.401 73.7159C62.3277 73.2809 62.2565 72.867 62.1873 72.4742C62.1249 72.0796 62.0648 71.7205 62.0069 71.3969C61.954 71.0647 61.9072 70.7958 61.8665 70.5902C61.8259 70.3846 61.757 70.2082 61.6598 70.0611C61.5676 69.9054 61.4513 69.7814 61.3112 69.689C61.1777 69.5949 61.0321 69.5365 60.8745 69.5138C60.7151 69.4843 60.5512 69.4922 60.3829 69.5373C60.2011 69.586 60.0218 69.6845 59.8451 69.8329C59.6666 69.9745 59.4991 70.171 59.3427 70.4221C59.2688 70.5502 59.1821 70.7249 59.0827 70.9464C58.9882 71.1594 58.8956 71.4331 58.8049 71.7678C58.7123 72.0956 58.625 72.4834 58.5429 72.9312C58.4676 73.3771 58.4136 73.8895 58.3811 74.4683C58.4091 74.6268 58.4396 74.781 58.4726 74.9309C58.5055 75.0808 58.5391 75.2198 58.5734 75.3477C58.6465 75.6745 58.7184 76.0232 58.7888 76.394C58.8516 76.7092 58.9219 77.0656 58.9996 77.4633C59.0773 77.861 59.1534 78.2664 59.228 78.6794L58.0085 80.5107C57.6441 78.8548 57.3464 77.4877 57.1152 76.4095C56.889 75.3228 56.7097 74.4652 56.5774 73.8367C56.4229 73.0987 56.3078 72.5343 56.2319 72.1433C56.1312 71.6868 55.9849 71.3832 55.793 71.2326C55.6011 71.0819 55.4008 71.0346 55.1921 71.0905C55.0305 71.1338 54.869 71.2312 54.7075 71.3827C54.5528 71.5324 54.412 71.7072 54.2852 71.9072C54.403 71.6736 54.534 71.422 54.6783 71.1524C54.8293 70.881 54.9949 70.6238 55.1751 70.3806C55.3553 70.1375 55.547 69.9238 55.7501 69.7395C55.96 69.5533 56.1828 69.4287 56.4185 69.3655C56.5666 69.3259 56.702 69.3329 56.8246 69.3866C56.9522 69.4318 57.0664 69.5347 57.1671 69.6953ZM73.1943 72.4692L73.261 73.5662C73.1404 73.7356 73.0019 73.9459 72.8455 74.1971C72.694 74.4397 72.5251 74.6979 72.3386 74.9715C72.1589 75.2434 71.9682 75.5146 71.7664 75.7851C71.5629 76.049 71.3522 76.2858 71.1342 76.4958C70.9144 76.699 70.6872 76.8609 70.4525 76.9815C70.2264 77.107 69.9981 77.1574 69.7678 77.1325C69.6205 77.1215 69.4837 77.0823 69.3575 77.0151C69.2379 76.9461 69.1211 76.8331 69.0068 76.6761C68.8993 76.5173 68.7927 76.3077 68.6868 76.0475C68.5792 75.7804 68.4722 75.4483 68.3657 75.0511C68.0446 73.8526 67.757 72.6849 67.5028 71.5479C67.2536 70.4023 67.0172 69.2642 66.7936 68.1334C66.5162 68.2294 66.2467 68.3413 65.9851 68.4691C65.7284 68.5884 65.5414 68.7251 65.4239 68.8793C65.7471 68.3886 65.9874 67.9525 66.145 67.5712C66.3008 67.183 66.4093 66.8473 66.4705 66.5639L66.0964 64.6832L67.4465 62.7736L68.2032 66.446C68.355 66.4197 68.4948 66.3895 68.6227 66.3552C68.7506 66.3209 68.8752 66.2876 68.9964 66.2551C69.5821 66.0981 70.1106 65.9024 70.5818 65.6679C71.0579 65.4249 71.5047 65.1536 71.9224 64.8541C71.5835 65.3129 71.2443 65.7033 70.9048 66.0252C70.572 66.3452 70.2554 66.6177 69.9548 66.8426C69.6524 67.0607 69.3713 67.237 69.1115 67.3716C68.8499 67.4994 68.6276 67.5987 68.4445 67.6694C68.7019 68.8994 68.9114 69.8968 69.073 70.6617C69.2396 71.4181 69.3678 72.0043 69.4577 72.4204C69.5607 72.9124 69.6419 73.2695 69.7014 73.4917C69.7696 73.827 69.8683 74.1144 69.9975 74.3541C70.1266 74.5937 70.2743 74.7814 70.4406 74.9172C70.6136 75.0513 70.7967 75.1285 70.9898 75.1489C71.1896 75.1676 71.3901 75.1211 71.5911 75.0095C71.745 74.9105 71.9113 74.7505 72.0902 74.5294C72.2427 74.3442 72.4125 74.0894 72.5998 73.765C72.792 73.4321 72.9902 73.0001 73.1943 72.4692ZM65.4239 68.8793L65.3741 68.9359L65.4239 68.8793ZM85.3319 70.0179C85.0845 70.3873 84.8826 70.6976 84.7262 70.9487C84.568 71.1932 84.4369 71.3907 84.3329 71.5412C84.2141 71.7174 84.1227 71.8609 84.0586 71.9719C83.9847 72.1 83.8809 72.2649 83.7474 72.4666C83.6187 72.6598 83.4724 72.8542 83.3083 73.0497C83.1509 73.2434 82.9805 73.4154 82.797 73.5656C82.6221 73.7207 82.4487 73.8141 82.2768 73.8457C81.9971 73.9062 81.7302 73.7179 81.476 73.2809C81.2267 72.8353 80.9929 72.2052 80.7746 71.3906L80.5148 70.421C80.364 70.8006 80.2151 71.1472 80.0682 71.4608C79.9262 71.7658 79.7979 72.0275 79.6832 72.2459C79.5506 72.5051 79.4252 72.7372 79.3069 72.942C79.0586 73.3622 78.8195 73.7221 78.5896 74.0218C78.3578 74.3149 78.1369 74.5544 77.927 74.7406C77.7171 74.9267 77.5224 75.0619 77.3429 75.1461C77.1652 75.237 77.0021 75.2879 76.8535 75.2989C76.7116 75.308 76.5699 75.2774 76.4284 75.2071C76.2869 75.1368 76.1468 75.0047 76.0083 74.8109C75.8698 74.6171 75.731 74.3548 75.5918 74.0241C75.4576 73.6848 75.3244 73.255 75.1922 72.7348C75.0601 72.2146 74.9355 71.6959 74.8186 71.1788C74.7066 70.6532 74.5985 70.1553 74.4942 69.6854C74.3967 69.2136 74.3099 68.7822 74.234 68.3912C74.1631 67.9917 74.1025 67.6579 74.0523 67.3899C73.9823 67.0479 73.8731 66.7885 73.7248 66.6118C73.5813 66.4265 73.3951 66.3645 73.1662 66.4259C73.0316 66.462 72.8909 66.543 72.7442 66.6688C72.5957 66.788 72.4372 66.964 72.2687 67.1968C72.3888 66.9986 72.5277 66.7629 72.6854 66.4898C72.8413 66.2099 73.01 65.9373 73.1916 65.6722C73.3798 65.4053 73.5762 65.1686 73.7807 64.9623C73.9852 64.756 74.1918 64.6248 74.4005 64.5689C74.5621 64.5256 74.695 64.5369 74.7993 64.6028C74.9085 64.6601 74.9961 64.7449 75.0622 64.8571C75.1351 64.9674 75.1905 65.0933 75.2284 65.2347C75.2712 65.3675 75.3061 65.4845 75.3332 65.5855C75.4631 66.0702 75.5752 66.5561 75.6697 67.0432C75.7623 67.5235 75.8515 68.0047 75.9374 68.4868C76.0215 68.9622 76.109 69.4367 76.1998 69.9103C76.2906 70.3839 76.3982 70.853 76.5227 71.3175C76.6093 71.6407 76.7067 71.9502 76.8148 72.2459C76.9278 72.5332 77.0545 72.777 77.1948 72.9776C77.3352 73.1781 77.4898 73.3243 77.6587 73.4161C77.8326 73.4994 78.0245 73.5021 78.2346 73.4242C78.5101 73.3215 78.758 73.1288 78.9781 72.8461C79.205 72.5616 79.3987 72.2211 79.5595 71.8244C79.7184 71.421 79.842 70.9802 79.9303 70.5019C80.0186 70.0236 80.063 69.5427 80.0633 69.0591C80.0623 69.0016 80.062 68.9331 80.0624 68.8537C80.0596 68.7895 80.0584 68.7176 80.0587 68.6382C80.0658 68.5569 80.0702 68.4655 80.0719 68.364C79.9373 67.7001 79.8189 67.0427 79.7166 66.3918C79.6211 65.739 79.5357 65.0836 79.4604 64.4255L81.0536 62.494C81.1346 63.7928 81.2526 65.0277 81.4075 66.1985C81.5692 67.3675 81.8007 68.5142 82.102 69.6385C82.2445 70.1704 82.3835 70.595 82.5191 70.9123C82.6613 71.2278 82.7997 71.4613 82.9341 71.6129C83.0753 71.7627 83.2152 71.8407 83.354 71.8468C83.4927 71.8529 83.6298 71.8126 83.7653 71.7258C83.8838 71.6291 84.0113 71.4722 84.148 71.2552C84.265 71.0723 84.4052 70.8146 84.5687 70.4822C84.7322 70.1497 84.9108 69.7122 85.1046 69.1696L85.3319 70.0179ZM72.2687 67.1968L72.2189 67.2534L72.2687 67.1968ZM87.6286 66.1877C87.6978 66.5805 87.783 67.0195 87.8841 67.5047C87.9672 67.9226 88.0677 68.4189 88.1856 68.9935C88.3017 69.5613 88.4306 70.1907 88.5724 70.8815L87.2627 72.7803C87.0428 71.3671 86.8199 70.0233 86.5938 68.7489C86.3745 67.4726 86.1025 66.2286 85.7778 65.0166C85.6136 64.404 85.4086 63.9754 85.1627 63.731C84.915 63.4799 84.6498 63.3922 84.367 63.4679C84.0707 63.5473 83.768 63.7908 83.4586 64.1984C83.5245 64.0942 83.6018 63.9652 83.6905 63.8116C83.7842 63.6494 83.8828 63.4786 83.9863 63.2993C84.0965 63.1183 84.2101 62.9363 84.3271 62.7534C84.4508 62.5687 84.5714 62.3993 84.6888 62.2452C84.813 62.0892 84.9368 61.9586 85.0601 61.8534C85.1817 61.7415 85.2963 61.6711 85.404 61.6422C85.6666 61.5718 85.8884 61.5918 86.0695 61.702C86.2506 61.8122 86.4037 61.9661 86.5287 62.1635C86.6538 62.3609 86.7546 62.5756 86.8312 62.8077C86.9078 63.0397 86.9687 63.2399 87.0138 63.4082L87.141 63.8829C87.339 63.1948 87.62 62.5602 87.9839 61.9792C88.3545 61.3964 88.8411 60.9233 89.4437 60.5598C89.5743 60.4815 89.7096 60.4344 89.8497 60.4185C89.9879 60.3959 90.1298 60.3867 90.2753 60.3911C90.419 60.3886 90.5703 60.3878 90.7292 60.3885C90.8949 60.3874 91.0653 60.3634 91.2403 60.3165C91.375 60.2804 91.5119 60.2257 91.651 60.1523C91.7901 60.079 91.943 59.9767 92.1099 59.8453C91.967 60.0929 91.8265 60.3362 91.6885 60.5753C91.5505 60.8143 91.408 61.0365 91.261 61.2419C91.1189 61.4387 90.9713 61.6153 90.8184 61.7718C90.6704 61.9197 90.5184 62.0253 90.3622 62.0888C90.1925 62.1559 90.0215 62.1909 89.8491 62.1938C89.6816 62.1882 89.5074 62.1844 89.3264 62.1824C89.1504 62.1718 88.9688 62.1808 88.7816 62.2093C88.5926 62.231 88.4019 62.3002 88.2094 62.4167C88.0806 62.5017 87.9744 62.6709 87.8908 62.9242C87.812 63.169 87.7477 63.4677 87.6979 63.8202C87.6529 64.1642 87.6246 64.5434 87.613 64.9579C87.6063 65.3638 87.6097 65.767 87.6232 66.1675L87.6286 66.1877ZM98.5635 66.1153C98.3149 66.6149 98.0806 67.0601 97.8606 67.451C97.6455 67.8334 97.4515 68.1596 97.2785 68.4296C97.0741 68.7442 96.8877 69.0178 96.7191 69.2506C96.2529 69.8807 95.801 70.2543 95.3634 70.3716C95.1143 70.4384 94.8808 70.4288 94.6629 70.3428C94.4536 70.2618 94.257 70.1341 94.0731 69.9596C93.8893 69.7852 93.7218 69.5775 93.5706 69.3366C93.4195 69.0956 93.2852 68.8502 93.1677 68.6002C93.0551 68.3418 92.9563 68.094 92.8711 67.8571C92.7927 67.6183 92.731 67.4147 92.6859 67.2464C92.565 66.7953 92.4847 66.2937 92.445 65.7414C92.412 65.1874 92.4236 64.625 92.48 64.0543C92.5413 63.475 92.6526 62.9075 92.814 62.3519C92.9736 61.7896 93.189 61.2737 93.4601 60.8041C93.7361 60.3261 94.0665 59.9164 94.4513 59.5752C94.8429 59.2321 95.2979 58.9911 95.8163 58.8522C95.9577 58.8143 96.0828 58.8097 96.1915 58.8383C96.2983 58.8602 96.3938 58.9068 96.4779 58.978C96.5619 59.0493 96.6285 59.1361 96.6775 59.2384C96.7333 59.339 96.7766 59.4464 96.8072 59.5609C96.8866 59.8571 96.8987 60.1714 96.8434 60.5038C96.7881 60.8361 96.6848 61.1777 96.5334 61.5285C96.387 61.8708 96.2061 62.2188 95.9905 62.5724C95.7732 62.9193 95.5396 63.2597 95.2899 63.5936C95.0452 63.919 94.7968 64.2309 94.5448 64.5293C94.2928 64.8277 94.0624 65.0988 93.8534 65.3424L93.913 65.5646C93.9581 65.7329 94.0198 65.9364 94.0982 66.1752C94.1816 66.4054 94.2786 66.6464 94.3894 66.8982C94.5051 67.1414 94.6342 67.381 94.7768 67.617C94.9195 67.853 95.0751 68.0567 95.2436 68.228C95.4122 68.3993 95.5911 68.5282 95.7802 68.6146C95.9743 68.6925 96.1756 68.7035 96.3844 68.6476C96.4786 68.6223 96.5726 68.5827 96.6664 68.5287C96.7584 68.468 96.845 68.3871 96.9261 68.2859C97.0633 68.0976 97.2096 67.8492 97.365 67.5405C97.4958 67.2746 97.6397 66.9365 97.7968 66.5264C97.954 66.1163 98.1103 65.6089 98.2658 65.0044L98.5635 66.1153ZM95.0884 60.6601C94.9824 60.5875 94.8618 60.5548 94.7266 60.5622C94.5915 60.5695 94.4553 60.6132 94.318 60.6933C94.1874 60.7716 94.0668 60.8869 93.9561 61.0393C93.8521 61.1898 93.7782 61.372 93.7345 61.5857C93.672 61.8911 93.6276 62.318 93.6013 62.8662C93.5732 63.4078 93.613 64.0141 93.7207 64.6852C93.9018 64.4995 94.0843 64.2919 94.2681 64.0622C94.4519 63.8326 94.623 63.5955 94.7812 63.3511C94.9461 63.1048 95.0857 62.8582 95.1999 62.6111C95.319 62.3555 95.3977 62.1107 95.4361 61.8767C95.4793 61.6342 95.4773 61.411 95.4299 61.2072C95.3807 60.9967 95.2669 60.8143 95.0884 60.6601ZM47.355 97.4285C47.5264 98.0682 47.5467 98.6689 47.4158 99.2307C47.2898 99.7841 47.0669 100.298 46.7468 100.774C46.4318 101.241 46.0484 101.668 45.5967 102.056C45.1432 102.438 44.6771 102.772 44.1984 103.059C43.7196 103.346 43.2536 103.586 42.8004 103.78C42.3453 103.967 41.9596 104.102 41.6431 104.187L38.8759 104.929C38.9751 104.895 39.0579 104.84 39.1242 104.765C39.1906 104.689 39.2424 104.6 39.2795 104.496C39.3148 104.385 39.3383 104.271 39.3498 104.152C39.3663 104.025 39.3751 103.896 39.3763 103.766C39.3782 103.477 39.3381 103.152 39.2559 102.792C39.1588 102.349 38.9954 101.631 38.7657 100.639C38.6673 100.218 38.5507 99.7155 38.4157 99.1311C38.2808 98.5466 38.1206 97.8679 37.9351 97.095C37.7564 96.3202 37.553 95.4402 37.3251 94.4549C37.0972 93.4696 36.8411 92.3656 36.5567 91.1429C36.3112 91.2231 36.0278 91.3099 35.7064 91.4032C35.3918 91.4947 35.034 91.587 34.6332 91.68L36.2376 90.1135C36.4719 90.0724 36.7188 90.0243 36.9783 89.9692C37.2377 89.9141 37.492 89.8532 37.7411 89.7864C37.9902 89.7197 38.2259 89.6565 38.4481 89.597C38.6685 89.5307 38.861 89.4683 39.0257 89.4097C39.2174 89.3439 39.3955 89.2818 39.5603 89.2232C40.0517 89.0915 40.5608 88.9984 41.0874 88.9439C41.6208 88.8876 42.1225 88.9155 42.5928 89.0276C43.0612 89.133 43.479 89.3458 43.8463 89.6659C44.2135 89.9861 44.4801 90.4559 44.646 91.0753C44.7387 91.5556 44.7264 92.0352 44.6094 92.5139C44.5571 92.7228 44.4821 92.9413 44.3845 93.1695C44.2851 93.391 44.1469 93.6157 43.9698 93.8435C43.7994 94.0696 43.5851 94.293 43.3267 94.5137C43.0684 94.7345 42.7566 94.9443 42.3913 95.1432C42.5022 95.0991 42.6072 95.0601 42.7064 95.0263C42.8123 94.9907 42.9191 94.9585 43.0268 94.9296C43.451 94.816 43.8382 94.7664 44.1885 94.7808C44.5436 94.7866 44.8607 94.8388 45.1396 94.9372C45.4253 95.0339 45.6769 95.1649 45.8944 95.3303C46.1169 95.4872 46.3099 95.6556 46.4736 95.8354C46.858 96.2736 47.1518 96.8047 47.355 97.4285ZM40.8966 101.724C40.9292 101.954 40.9356 102.179 40.9156 102.401C40.9019 102.593 40.8638 102.787 40.8011 102.984C40.7453 103.179 40.6431 103.337 40.4946 103.456C41.1841 103.336 41.7715 103.226 42.2567 103.124C42.7402 103.016 43.1334 102.922 43.4364 102.841C43.5912 102.799 43.7259 102.763 43.8403 102.733C43.9597 102.693 44.0556 102.66 44.1278 102.634C44.2135 102.604 44.2824 102.578 44.3345 102.557C44.536 102.474 44.7338 102.324 44.928 102.106C45.1221 101.888 45.2893 101.623 45.4294 101.311C45.5678 100.992 45.665 100.642 45.7212 100.259C45.784 99.8736 45.7831 99.4662 45.7183 99.0361C45.6292 98.4611 45.4645 97.9676 45.2242 97.5557C44.9907 97.142 44.6843 96.82 44.3051 96.5896C43.9259 96.3593 43.4756 96.2274 42.9543 96.1939C42.4379 96.1519 41.8531 96.2183 41.2 96.3933C41.0856 96.424 40.9653 96.4598 40.8392 96.5008C40.7131 96.5419 40.5878 96.5862 40.4635 96.634C40.8452 96.308 41.2095 95.9975 41.5562 95.7026C41.9029 95.4076 42.1892 95.0891 42.4151 94.7472C42.6459 94.3967 42.7965 94.0027 42.8669 93.5653C42.9374 93.1279 42.8905 92.6029 42.7263 91.9902C42.6325 91.6401 42.4907 91.3533 42.301 91.13C42.1112 90.9066 41.8919 90.7344 41.643 90.6135C41.3941 90.4926 41.124 90.4134 40.8325 90.3761C40.5478 90.3369 40.2559 90.3249 39.9569 90.3401C39.6647 90.3534 39.3778 90.387 39.0963 90.4408C38.8149 90.4945 38.5554 90.5496 38.318 90.606C38.6212 91.8454 38.8892 92.9534 39.1221 93.9301C39.3616 94.9051 39.5681 95.7698 39.7414 96.5244C39.9215 97.2771 40.0745 97.9289 40.2004 98.4797C40.3312 99.0219 40.438 99.4876 40.5206 99.8768C40.7202 100.783 40.8455 101.399 40.8966 101.724ZM55.0956 97.4327C54.847 97.9323 54.6127 98.3776 54.3927 98.7685C54.1776 99.1508 53.9836 99.477 53.8106 99.7471C53.6062 100.062 53.4198 100.335 53.2512 100.568C52.785 101.198 52.3331 101.572 51.8955 101.689C51.6464 101.756 51.4129 101.746 51.195 101.66C50.9857 101.579 50.7891 101.451 50.6052 101.277C50.4214 101.103 50.2539 100.895 50.1027 100.654C49.9516 100.413 49.8173 100.168 49.6998 99.9177C49.5872 99.6592 49.4884 99.4115 49.4032 99.1745C49.3248 98.9357 49.2631 98.7322 49.218 98.5638C49.0971 98.1127 49.0168 97.6111 48.9771 97.0589C48.9441 96.5048 48.9557 95.9425 49.0121 95.3717C49.0734 94.7924 49.1847 94.225 49.3461 93.6694C49.5057 93.107 49.7211 92.5911 49.9922 92.1216C50.2682 91.6435 50.5986 91.2339 50.9834 90.8926C51.375 90.5495 51.83 90.3086 52.3484 90.1697C52.4898 90.1318 52.6149 90.1271 52.7236 90.1557C52.8304 90.1776 52.9259 90.2242 53.01 90.2955C53.094 90.3668 53.1606 90.4536 53.2096 90.5559C53.2654 90.6564 53.3087 90.7639 53.3393 90.8783C53.4187 91.1746 53.4308 91.4889 53.3755 91.8212C53.3202 92.1535 53.2169 92.4951 53.0655 92.846C52.9191 93.1883 52.7382 93.5362 52.5226 93.8898C52.3053 94.2367 52.0717 94.5771 51.822 94.911C51.5773 95.2364 51.3289 95.5483 51.0769 95.8467C50.8249 96.1452 50.5945 96.4162 50.3855 96.6598L50.4451 96.882C50.4902 97.0503 50.5519 97.2539 50.6303 97.4926C50.7137 97.7229 50.8107 97.9639 50.9215 98.2156C51.0372 98.4588 51.1663 98.6985 51.3089 98.9345C51.4516 99.1705 51.6072 99.3741 51.7757 99.5454C51.9443 99.7168 52.1232 99.8456 52.3123 99.9321C52.5064 100.01 52.7078 100.021 52.9165 99.965C53.0107 99.9398 53.1047 99.9001 53.1985 99.8461C53.2905 99.7854 53.3771 99.7045 53.4582 99.6034C53.5954 99.4151 53.7417 99.1666 53.8971 98.858C54.0279 98.592 54.1718 98.2539 54.3289 97.8438C54.4861 97.4337 54.6424 96.9264 54.7979 96.3218L55.0956 97.4327ZM51.6205 91.9775C51.5145 91.9049 51.3939 91.8723 51.2587 91.8796C51.1236 91.887 50.9874 91.9307 50.8501 92.0108C50.7195 92.0891 50.5989 92.2044 50.4882 92.3567C50.3842 92.5072 50.3103 92.6894 50.2666 92.9032C50.2041 93.2086 50.1597 93.6354 50.1334 94.1837C50.1053 94.7252 50.1451 95.3315 50.2528 96.0026C50.4339 95.817 50.6164 95.6093 50.8002 95.3797C50.984 95.15 51.1551 94.913 51.3133 94.6685C51.4782 94.4223 51.6178 94.1756 51.732 93.9285C51.8511 93.6729 51.9298 93.4281 51.9682 93.1941C52.0114 92.9516 52.0094 92.7285 51.962 92.5247C51.9128 92.3141 51.799 92.1318 51.6205 91.9775ZM62.0886 87.3758C62.0987 87.5751 62.1235 87.8427 62.163 88.1785C62.2092 88.5125 62.2662 88.8869 62.334 89.3017C62.4086 89.7147 62.487 90.1555 62.5693 90.6242C62.6516 91.0928 62.7381 91.5639 62.829 92.0375C62.9247 92.5026 63.0177 92.9575 63.1081 93.4024C63.1966 93.8405 63.2786 94.2407 63.354 94.6029C63.4294 94.9652 63.4938 95.2727 63.547 95.5254C63.6071 95.7763 63.6497 95.9489 63.675 96.0431C63.8572 96.7232 64.0004 97.4461 64.1045 98.212C64.2155 98.976 64.2622 99.7429 64.2447 100.512C64.2357 101.287 64.1495 102.043 63.9861 102.779C63.8244 103.522 63.5671 104.205 63.214 104.826C62.861 105.448 62.3967 105.99 61.8212 106.455C61.2456 106.919 60.5371 107.264 59.6955 107.49C59.305 107.595 58.8906 107.637 58.4524 107.617C58.0141 107.598 57.5976 107.511 57.2027 107.357C56.8029 107.211 56.4536 106.998 56.1546 106.718C55.8508 106.445 55.6439 106.104 55.5338 105.693C55.4508 105.384 55.437 105.063 55.4922 104.73C55.5408 104.4 55.6425 104.066 55.7975 103.728C55.9457 103.393 56.1303 103.058 56.3512 102.725C56.5722 102.392 56.8093 102.065 57.0626 101.744C57.3227 101.422 57.582 101.111 57.8408 100.81C58.1062 100.508 58.3551 100.225 58.5873 99.9609C58.4576 99.9885 58.2932 99.9676 58.0942 99.8982C57.9038 99.8338 57.7009 99.6825 57.4855 99.4443C57.2702 99.2062 57.0489 98.865 56.8216 98.4207C56.601 97.9747 56.3992 97.3829 56.216 96.6454C56.0153 95.8693 55.9139 95.1677 55.9118 94.5404C55.9146 93.9046 55.9819 93.3346 56.1138 92.8302C56.2438 92.3191 56.4213 91.8638 56.6462 91.4644C56.8693 91.0582 57.1042 90.6958 57.3508 90.3772C57.8354 89.735 58.3293 89.1949 58.8325 88.757C59.3407 88.3105 59.8672 87.9998 60.4121 87.825C60.5786 87.7731 60.7488 87.7348 60.9225 87.7099C61.0675 87.6855 61.2219 87.6693 61.3858 87.6615C61.5564 87.6519 61.7138 87.6602 61.858 87.6865L62.0886 87.3758ZM61.1362 96.3445C60.8411 96.9937 60.5488 97.5591 60.2593 98.0408C59.9748 98.5139 59.705 98.9073 59.4499 99.2211C59.2826 99.4318 59.0955 99.6624 58.8883 99.9127C58.6812 100.163 58.4734 100.424 58.2649 100.697C58.065 100.974 57.8702 101.257 57.6807 101.546C57.4929 101.842 57.3338 102.137 57.2035 102.432C57.08 102.725 56.9943 103.011 56.9466 103.291C56.894 103.579 56.9028 103.854 56.9732 104.117C57.058 104.433 57.1901 104.698 57.3695 104.909C57.5489 105.121 57.7615 105.295 58.0073 105.431C58.253 105.567 58.5176 105.666 58.801 105.727C59.0911 105.787 59.385 105.82 59.6827 105.826C59.9804 105.833 60.2718 105.817 60.5569 105.776C60.8505 105.741 61.1218 105.69 61.3709 105.623C61.9365 105.472 62.358 105.2 62.6355 104.808C62.9197 104.414 63.0985 103.937 63.1719 103.376C63.2453 102.815 63.2356 102.186 63.1427 101.49C63.0583 100.798 62.9338 100.077 62.769 99.3275C62.6042 98.5779 62.4248 97.8141 62.2308 97.0363C62.035 96.2516 61.8651 95.4962 61.721 94.7699C61.6435 94.9927 61.5693 95.2002 61.4981 95.3925C61.4337 95.5829 61.373 95.7471 61.3162 95.885C61.2531 96.0535 61.1931 96.2066 61.1362 96.3445ZM59.2411 89.6758C58.8169 89.7895 58.4665 89.9627 58.1897 90.1957C57.913 90.4286 57.6969 90.6994 57.5414 91.008C57.3842 91.3099 57.2748 91.6423 57.2133 92.0052C57.1518 92.368 57.1275 92.7353 57.1405 93.1071C57.1535 93.4789 57.1919 93.851 57.2557 94.2236C57.3176 94.5895 57.391 94.9306 57.4758 95.2471C57.5101 95.375 57.5601 95.5348 57.6259 95.7264C57.6917 95.9181 57.7712 96.1205 57.8644 96.3336C57.9643 96.545 58.0752 96.757 58.1972 96.9697C58.3173 97.1756 58.4455 97.3578 58.5817 97.5161C58.7229 97.6659 58.8694 97.7818 59.0212 97.8638C59.1798 97.944 59.3399 97.9624 59.5015 97.9191C59.6766 97.8722 59.8634 97.7211 60.062 97.4659C60.2588 97.2039 60.4776 96.7952 60.7185 96.24C60.8224 95.9812 60.9179 95.6778 61.005 95.3297C61.0779 95.036 61.1479 94.6781 61.2152 94.2559C61.2825 93.8338 61.3268 93.3529 61.3482 92.8131C61.3016 92.5586 61.2497 92.2839 61.1923 91.989C61.1399 91.6855 61.0874 91.382 61.035 91.0786C60.9825 90.7751 60.9328 90.4818 60.8857 90.1985C60.8436 89.9067 60.8045 89.6394 60.7683 89.3965C60.1205 89.4835 59.6114 89.5766 59.2411 89.6758ZM70.8569 92.993L70.8566 93.8807C70.7728 94.0258 70.6702 94.2085 70.5488 94.4286C70.4323 94.6402 70.2992 94.8707 70.1495 95.1201C70.0048 95.3609 69.85 95.6045 69.685 95.8507C69.5201 96.097 69.3531 96.3221 69.1841 96.5262C69.0151 96.7302 68.8437 96.8988 68.6701 97.0319C68.5051 97.17 68.3458 97.2487 68.1922 97.2682C67.9543 97.2959 67.7451 97.1751 67.5648 96.906C67.3893 96.6282 67.2114 96.1527 67.031 95.4795C66.9985 95.3583 66.9496 95.1621 66.8841 94.891C66.8236 94.6113 66.7514 94.2879 66.6675 93.9207C66.5902 93.5518 66.504 93.1491 66.4087 92.7128C66.3184 92.2679 66.2281 91.8231 66.1377 91.3782C66.0456 90.9267 65.9562 90.4852 65.8695 90.0538C65.7877 89.6139 65.7158 89.211 65.6538 88.8451C65.6109 88.6041 65.5187 88.4484 65.3771 88.378C65.2338 88.301 65.078 88.285 64.9097 88.3301C64.7683 88.368 64.6292 88.4413 64.4924 88.5502C64.3556 88.659 64.2385 88.7878 64.1413 88.9365C64.3402 88.6018 64.5206 88.3189 64.6824 88.0879C64.8424 87.8502 64.9812 87.6543 65.0986 87.5001C65.2394 87.3253 65.3586 87.1779 65.4564 87.0579C65.5976 86.9118 65.7457 86.818 65.9006 86.7765C66.0603 86.7265 66.2116 86.7256 66.3545 86.7739C66.5041 86.8205 66.6333 86.9121 66.7421 87.0489C66.8576 87.184 66.9409 87.3601 66.9919 87.5773C67.0249 87.7273 67.0721 87.9708 67.1335 88.3079C67.1999 88.6365 67.2722 89.014 67.3504 89.4405C67.4353 89.8651 67.5198 90.3152 67.6039 90.7905C67.6947 91.2641 67.781 91.7209 67.8628 92.1608C67.9514 92.5989 68.0291 92.9966 68.0959 93.354C68.1696 93.7095 68.2283 93.9824 68.272 94.1727C68.3614 94.5601 68.4848 94.859 68.6422 95.0694C68.8063 95.278 68.9961 95.3534 69.2116 95.2957C69.3732 95.2524 69.5394 95.1321 69.7102 94.9348C69.8878 94.7356 70.0556 94.5139 70.2139 94.2694C70.3721 94.025 70.5058 93.7835 70.6151 93.5449C70.7311 93.3046 70.8117 93.1206 70.8569 92.993ZM65.1485 78.5567C65.2504 78.883 65.3197 79.1819 65.3564 79.4535C65.398 79.7166 65.4229 79.9444 65.4313 80.137C65.4419 80.3651 65.4351 80.569 65.4111 80.7486C65.3736 80.9318 65.296 81.1403 65.1782 81.3739C65.0801 81.5734 64.9353 81.8142 64.7439 82.0964C64.5575 82.3701 64.3006 82.677 63.9732 83.0173C64.0326 82.7272 64.0614 82.4308 64.0597 82.1282C64.0562 81.8188 64.0422 81.5376 64.0176 81.2844C63.989 80.989 63.9444 80.7014 63.8839 80.4218L65.1485 78.5567ZM72.2142 85.3337C72.2938 85.4423 72.3719 85.6126 72.4485 85.8446C72.5251 86.0767 72.604 86.3442 72.6852 86.6472C72.743 86.8626 72.8009 87.0924 72.8591 87.3366C72.9173 87.5808 72.9731 87.8293 73.0264 88.082C73.1459 87.7469 73.2804 87.4005 73.4299 87.043C73.5776 86.6786 73.74 86.3285 73.9169 85.9924C74.0988 85.6478 74.2971 85.324 74.5118 85.0212C74.7265 84.7183 74.9597 84.4574 75.2113 84.2384C75.4679 84.0109 75.7422 83.8364 76.0344 83.7148C76.3315 83.5847 76.6518 83.5277 76.9953 83.5439C77.1848 83.5509 77.3478 83.5938 77.4844 83.6726C77.6277 83.7497 77.7547 83.86 77.8653 84.0035C77.9741 84.1403 78.0657 84.307 78.14 84.5036C78.2211 84.6984 78.2932 84.9136 78.3563 85.1492C78.497 85.6744 78.6157 86.1982 78.7124 86.7208C78.8092 87.2433 78.8982 87.7642 78.9797 88.2836C79.066 88.7945 79.1558 89.3044 79.2489 89.8135C79.342 90.3226 79.4544 90.8228 79.5861 91.3143C79.6763 91.651 79.7745 91.9097 79.8807 92.0905C79.9936 92.2695 80.1286 92.356 80.2857 92.35C80.4321 92.3036 80.5799 92.1954 80.7292 92.0255C80.8588 91.8898 81.0025 91.6853 81.1602 91.4121C81.3179 91.1389 81.4715 90.7695 81.6209 90.3037L81.7457 91.0929C81.6181 91.3435 81.4709 91.6428 81.3043 91.9905C81.1444 92.3364 80.9675 92.6725 80.7735 92.9987C80.5844 93.3163 80.3777 93.5954 80.1535 93.8359C79.936 94.0746 79.7058 94.212 79.463 94.2482C79.1981 94.2831 78.9506 94.1943 78.7205 93.9817C78.4885 93.7625 78.2977 93.3734 78.1479 92.8146C78.074 92.5385 77.9975 92.2127 77.9185 91.8369C77.8376 91.4545 77.759 91.0534 77.6826 90.6337C77.6063 90.214 77.5281 89.7875 77.4481 89.3543C77.3748 88.9193 77.3036 88.5054 77.2344 88.1126C77.172 87.718 77.1119 87.3589 77.054 87.0353C77.0011 86.7031 76.9543 86.4342 76.9136 86.2286C76.873 86.023 76.8041 85.8466 76.7069 85.6994C76.6147 85.5438 76.4984 85.4197 76.3583 85.3274C76.2248 85.2333 76.0792 85.1749 75.9216 85.1522C75.7622 85.1227 75.5983 85.1305 75.43 85.1756C75.2482 85.2244 75.0689 85.3229 74.8922 85.4713C74.7137 85.6129 74.5462 85.8093 74.3898 86.0605C74.3159 86.1886 74.2292 86.3633 74.1298 86.5848C74.0353 86.7978 73.9427 87.0715 73.852 87.4061C73.7594 87.734 73.6721 88.1218 73.59 88.5696C73.5147 89.0155 73.4607 89.5279 73.4282 90.1067C73.4562 90.2652 73.4867 90.4194 73.5197 90.5693C73.5526 90.7192 73.5862 90.8581 73.6205 90.9861C73.6936 91.3128 73.7655 91.6616 73.8359 92.0324C73.8987 92.3475 73.969 92.704 74.0467 93.1017C74.1244 93.4994 74.2005 93.9048 74.2751 94.3178L73.0556 96.1491C72.6912 94.4932 72.3935 93.1261 72.1623 92.0479C71.9361 90.9611 71.7568 90.1035 71.6245 89.4751C71.47 88.7371 71.3549 88.1727 71.279 87.7817C71.1783 87.3252 71.032 87.0216 70.8401 86.8709C70.6482 86.7203 70.4479 86.673 70.2392 86.7289C70.0776 86.7722 69.9161 86.8696 69.7546 87.0211C69.5999 87.1708 69.4591 87.3456 69.3323 87.5456C69.4501 87.312 69.5811 87.0604 69.7254 86.7908C69.8764 86.5194 70.042 86.2622 70.2222 86.019C70.4024 85.7759 70.5941 85.5622 70.7972 85.3779C71.0071 85.1917 71.2299 85.0671 71.4656 85.0039C71.6137 84.9642 71.7491 84.9713 71.8717 85.025C71.9993 85.0702 72.1135 85.1731 72.2142 85.3337ZM85.6541 81.6026C85.6421 81.6924 85.5918 81.8142 85.503 81.9678C85.4309 82.1026 85.3173 82.2846 85.1622 82.5138C85.0121 82.7344 84.7929 83.0205 84.5046 83.3719C84.4806 83.2557 84.4386 83.1659 84.3783 83.1027C84.323 83.0309 84.263 82.982 84.1983 82.9561C84.1251 82.9252 84.0487 82.9096 83.9693 82.9092C83.5167 82.9439 83.1767 83.035 82.9492 83.1825C82.8959 83.2257 82.8668 83.3056 82.862 83.4224C82.8621 83.5306 82.8829 83.6621 82.9244 83.817C83.0236 84.1873 83.1803 84.5025 83.3943 84.7627C83.6133 85.0143 83.8614 85.2401 84.1386 85.44C84.4141 85.6332 84.7037 85.8118 85.0074 85.9757C85.3111 86.1397 85.5998 86.3149 85.8735 86.5014C86.1454 86.6811 86.3838 86.8842 86.5888 87.1107C86.8006 87.3354 86.9488 87.606 87.0336 87.9224C87.1058 88.1917 87.1234 88.4865 87.0865 88.8067C87.0546 89.1183 86.9557 89.4226 86.7899 89.7196C86.6488 89.9739 86.4927 90.2395 86.3215 90.5162C86.157 90.7912 85.9798 91.0588 85.7897 91.319C85.6064 91.5774 85.4118 91.8208 85.206 92.0491C85.0002 92.2775 84.7896 92.4746 84.5743 92.6405C84.2033 92.8987 83.8292 93.0783 83.4522 93.1793C83.1963 93.2479 82.9642 93.2704 82.7559 93.2468C82.5475 93.2233 82.4024 93.1395 82.3205 92.9955C82.2544 92.8833 82.2517 92.7253 82.3125 92.5213C82.3715 92.3107 82.4584 92.0962 82.5731 91.8778C82.6859 91.6528 82.8092 91.4393 82.9427 91.2376C83.0812 91.0273 83.1892 90.8648 83.2668 90.7502C83.3399 91.077 83.4762 91.2895 83.6757 91.3876C83.8801 91.4771 84.1668 91.4833 84.5357 91.4061C84.7211 91.3708 84.9103 91.3093 85.1033 91.2215C85.2944 91.127 85.4643 91.0202 85.6127 90.901C85.7661 90.7733 85.8805 90.6344 85.9557 90.4844C86.0377 90.3325 86.0537 90.1767 86.0037 90.0169C85.8892 89.6435 85.7164 89.3217 85.4853 89.0517C85.2591 88.7732 85.0013 88.5247 84.7119 88.3064C84.4274 88.0796 84.1288 87.8673 83.816 87.6697C83.5082 87.4635 83.213 87.2504 82.9303 87.0302C82.6543 86.8083 82.4042 86.5614 82.1798 86.2896C81.9621 86.016 81.8046 85.6974 81.7072 85.3338C81.6657 85.179 81.6428 85.0263 81.6386 84.8759C81.6344 84.7255 81.6589 84.5746 81.7122 84.4232C81.8057 84.1528 81.9537 83.857 82.1563 83.5357C82.3588 83.2144 82.5837 82.9088 82.8307 82.6189C83.0778 82.329 83.3305 82.0737 83.5888 81.8529C83.8454 81.6254 84.0778 81.4694 84.286 81.3847C84.4875 81.3018 84.6727 81.2522 84.8415 81.2359C85.0152 81.211 85.1631 81.211 85.2853 81.236C85.4075 81.261 85.4996 81.3085 85.5616 81.3785C85.6286 81.4399 85.6594 81.5146 85.6541 81.6026Z" fill="#D60F0F"/>
<path d="M42.7529 118.383L88.1514 106.219" stroke="#FF385C" stroke-width="2"/>
<path d="M49.3311 23.1647L52.6439 30.4466M58.7264 29.3273L58.5584 21.7134M65.7582 20.6351L66.1333 28.7042M74.1613 29.4464L76.931 21.0453M81.9002 31.9681L83.1816 27.5399M87.3226 36.6423L90.7144 32.6273L94.1063 28.6123M95.6006 42.7638L101.185 36.9274M104.045 50.4578L111.782 46.9379M106.861 59.064L112.241 58.8139M107.195 68.2503L112.306 69.2211L117.417 70.1918M106.453 76.2783L113.571 77.4346M102.648 82.4039L108.112 85.9608L113.575 89.5177M97.2299 89.8127L103.562 94.0728" stroke="#FF385C" stroke-width="2"/>
</g>
</svg>
