<svg width="106" height="70" viewBox="0 0 106 70" fill="none" xmlns="http://www.w3.org/2000/svg">
<path d="M2.09165 25.7677L0.917497 27.4826L5.10087 43.7484C10.3967 64.3837 10.5931 64.6811 17.7787 62.7558L21.4804 61.7639L20.9844 59.9131C20.3718 57.6267 21.5332 54.34 23.6182 52.3227C27.4256 48.677 34.3724 50.433 36.3024 55.4586L36.9763 57.3201L56.726 52.2032L76.4611 47.0318L76.0965 45.6709C75.1484 42.1326 77.1146 37.93 80.4633 36.2742C84.1241 34.4765 89.6847 36.7206 91.4465 40.6827L92.411 42.7581L96.4393 41.6787C100.195 40.6723 100.602 40.4467 101.678 38.5831C102.833 36.5814 102.819 36.527 101.083 30.0491C99.5223 24.2244 98.9107 22.8129 95.7461 17.5347C91.6393 10.7002 88.2434 6.30077 85.9909 4.86225C82.6195 2.7317 83.4506 2.56734 41.9157 13.6966L3.2658 24.0528L2.09165 25.7677ZM24.9657 31.6576C26.9192 38.0772 26.8793 38.1462 19.5849 40.1008C12.236 42.0699 12.1125 42.0447 10.5955 36.3833C9.92456 33.8792 9.43149 31.3858 9.47811 30.9066C9.54609 30.0715 10.5512 29.6855 16.5139 28.2045L23.4167 26.5299L24.9657 31.6576ZM44.6211 26.6243C45.7948 30.569 46.0545 32.1914 45.6521 32.6493C44.9668 33.3581 34.4353 36.2967 33.052 36.1422C32.2714 36.0596 31.831 35.0691 30.6787 30.7686C29.891 27.8291 29.3688 25.2268 29.5282 24.9507C29.7021 24.7291 32.7759 23.7888 36.3832 22.8805L43.0138 21.2789L44.6211 26.6243ZM64.3271 21.3441C65.567 25.9712 65.6954 27.1037 65.0606 27.5655C63.588 28.6019 53.2412 31.141 52.3439 30.6229C51.4466 30.1049 48.6617 20.5824 49.1399 19.7541C49.2448 19.4926 52.4128 18.4687 56.1145 17.4769L62.8102 15.6828L64.3271 21.3441ZM82.4734 11.1141C84.3701 12.5313 90.6887 23.2657 92.1132 27.4932C92.8931 29.9681 93.4327 31.9823 93.215 32.0406C92.6162 32.2011 74.6524 28.0877 73.4537 27.5337C72.4476 27.0448 71.9925 25.9999 70.6214 20.8828C69.7317 17.5622 69.1073 14.5789 69.2813 14.3572C69.7449 13.4745 81.685 10.5669 82.4734 11.1141Z" fill="#D60F0F"/>
<path d="M24.0917 53.6544C20.9987 56.7003 21.7963 61.8543 25.7452 64.1802C27.4561 65.122 28.2368 65.2046 30.5231 64.5919C32.9183 63.9502 33.4043 63.5865 34.5998 61.5159C36.154 58.824 35.795 56.178 33.6504 53.8354C31.4075 51.3441 26.6083 51.2881 24.0917 53.6544ZM30.7616 57.6433C31.7738 60.1143 28.4542 61.879 27.0357 59.6336C26.152 58.2951 26.9995 56.6677 28.7454 56.4333C29.8633 56.2504 30.3464 56.5294 30.7616 57.6433Z" fill="#D60F0F"/>
<path d="M78.4642 40.1356C76.6233 42.846 76.7353 45.4415 78.7166 47.8278C83.039 52.8542 91.3297 49.1741 90.3056 42.7389C89.2853 36.536 81.903 34.8967 78.4642 40.1356ZM85.7425 42.9113C86.5 44.8671 84.8864 46.4664 82.9976 45.5139C80.7636 44.3621 81.2037 42.0854 83.7807 41.6866C84.8442 41.5184 85.3419 41.8518 85.7425 42.9113Z" fill="#D60F0F"/>
</svg>
