<svg width="28" height="28" viewBox="0 0 28 28" fill="none" xmlns="http://www.w3.org/2000/svg">
<g clip-path="url(#clip0_2524_18942)">
<path d="M28 0H0V28H28V0Z" fill="white"/>
<path fill-rule="evenodd" clip-rule="evenodd" d="M11.152 4.31332C12.5478 2.3591 15.4522 2.3591 16.8481 4.31332L17.0704 4.62443C17.3159 4.96836 17.7285 5.15252 18.1485 5.10586L19.139 4.99579C21.3682 4.74811 23.2518 6.6317 23.0041 8.8609L22.8941 9.85143C22.8475 10.2715 23.0316 10.6839 23.3755 10.9296L23.6866 11.1518C25.6408 12.5477 25.6408 15.4521 23.6866 16.848L23.3755 17.0702C23.0316 17.3158 22.8475 17.7284 22.8941 18.1484L23.0041 19.1389C23.2518 21.3681 21.3682 23.2517 19.139 23.004L18.1485 22.894C17.7285 22.8473 17.3159 23.0314 17.0704 23.3754L16.8481 23.6865C15.4522 25.6407 12.5479 25.6407 11.152 23.6865L10.9297 23.3754C10.6841 23.0314 10.2716 22.8473 9.85154 22.894L8.86102 23.004C6.63183 23.2517 4.74823 21.3681 4.99591 19.1389L5.10598 18.1484C5.15265 17.7284 4.96849 17.3158 4.62455 17.0702L4.31344 16.848C2.35922 15.4521 2.35922 12.5478 4.31344 11.1518L4.62455 10.9296C4.96849 10.6839 5.15265 10.2715 5.10598 9.85141L4.99591 8.8609C4.74823 6.6317 6.63183 4.74811 8.86102 4.99579L9.85155 5.10586C10.2716 5.15252 10.6841 4.96836 10.9297 4.62443L11.152 4.31332ZM18.325 10.8416C18.7806 11.2972 18.7806 12.036 18.325 12.4915L13.8696 16.9469C13.2974 17.5193 12.3694 17.5193 11.7971 16.9469L9.67508 14.8249C9.21947 14.3693 9.21947 13.6306 9.67508 13.175C10.1307 12.7194 10.8694 12.7194 11.325 13.175L12.8334 14.6834L16.6751 10.8416C17.1307 10.386 17.8694 10.386 18.325 10.8416Z" fill="#D60F0F"/>
</g>
<defs>
<clipPath id="clip0_2524_18942">
<rect width="28" height="28" fill="white"/>
</clipPath>
</defs>
</svg>
