<svg width="49" height="61" viewBox="0 0 49 61" fill="none" xmlns="http://www.w3.org/2000/svg">
<path fill-rule="evenodd" clip-rule="evenodd" d="M37.472 51.8611L36.9888 51.9906C35.505 46.2332 30.3048 42.1518 24.2642 42.1518C18.2242 42.1518 13.0241 46.2333 11.5402 51.9906L2.03541 49.4445C2.94243 45.996 4.63547 42.8863 6.89126 40.2925L11.0703 44.4709C11.6536 45.0527 12.6494 44.635 12.6494 43.8175C12.6493 43.696 12.6253 43.5756 12.5787 43.4634C12.5321 43.3511 12.4638 43.2492 12.3778 43.1635L8.15962 38.9453C10.687 36.4654 13.7726 34.5703 17.1703 33.4525L18.7056 39.1833C18.8388 39.6813 19.3461 39.9655 19.8375 39.8359C19.9547 39.8045 20.0646 39.7504 20.1609 39.6765C20.2571 39.6026 20.3379 39.5105 20.3985 39.4053C20.4591 39.3002 20.4984 39.1842 20.5141 39.0638C20.5298 38.9435 20.5217 38.8213 20.49 38.7041L18.9484 32.9459C22.4422 32.1017 26.0866 32.1017 29.5804 32.9459L28.0372 38.7041C27.8808 39.2911 28.3232 39.8678 28.9309 39.8678C29.34 39.8678 29.713 39.5955 29.823 39.1833L31.3584 33.4525C34.7554 34.5703 37.8417 36.4654 40.3691 38.9453L36.1508 43.1635C35.5652 43.7491 35.991 44.7417 36.8034 44.7417C37.049 44.7418 37.2846 44.6443 37.4584 44.4709L41.6366 40.2925C43.8932 42.8863 45.5862 45.996 46.4932 49.4445L37.472 51.8611ZM24.2642 59.1516C26.3912 59.1516 28.1209 57.4219 28.1209 55.2947C28.1209 53.1686 26.3912 51.4373 24.2642 51.4373C22.1379 51.4373 20.4073 53.1686 20.4073 55.2947C20.4075 57.422 22.1379 59.1516 24.2642 59.1516ZM14.0476 50.464C13.7448 51.1084 13.5041 51.7801 13.3286 52.4701L18.7285 53.9165C18.7826 53.7012 18.8488 53.489 18.9268 53.2812L14.0476 50.464ZM17.8332 46.0039C16.7149 46.7766 15.7458 47.7453 14.9724 48.863L19.8533 51.6816C20.0922 51.39 20.3594 51.1228 20.651 50.8838L17.8332 46.0039ZM23.3401 49.6655V44.0393C21.9585 44.1516 20.6386 44.5107 19.4341 45.0798L22.2504 49.9574C22.603 49.824 22.968 49.7262 23.3401 49.6655ZM28.6759 51.6818L33.5568 48.8631C32.7835 47.7455 31.8146 46.7769 30.6969 46.004L27.8783 50.8841C28.1701 51.1228 28.4372 51.39 28.6759 51.6818ZM29.6008 53.2811C29.6801 53.4886 29.7469 53.7007 29.8006 53.9163L35.2005 52.4699C35.0252 51.7798 34.7842 51.108 34.4809 50.4639L29.6008 53.2811ZM29.0942 45.0798C27.8906 44.5107 26.5707 44.1516 25.1884 44.0393V49.6655C25.5607 49.7263 25.9259 49.8241 26.2788 49.9574L29.0942 45.0798ZM22.0013 29.1938C23.4806 29.6774 25.0483 29.6765 26.5277 29.1938V30.5691C25.0221 30.4297 23.5069 30.4297 22.0013 30.5691V29.1938ZM19.7385 25.523C19.7099 25.4284 19.6668 25.3387 19.6104 25.2574C18.6848 23.95 18.0221 22.4725 17.6389 20.8614C17.4367 20.0488 17.439 19.3035 17.6451 18.3675C17.7966 17.6744 18.0604 16.7354 18.5943 16.5777C19.3083 16.3645 20.6762 17.3365 22.817 16.4372C23.4001 16.1921 23.8855 15.8377 24.2642 15.3944C24.6435 15.8377 25.129 16.1922 25.7121 16.4372C27.8531 17.3365 29.2206 16.3645 29.9348 16.5777C30.4686 16.7354 30.7325 17.6744 30.884 18.3668C31.0901 19.3035 31.0924 20.0488 30.8888 20.8692C30.507 22.4725 29.8435 23.9494 28.9186 25.2577C28.8617 25.3385 28.8184 25.4281 28.7906 25.5231C27.5307 26.935 25.936 27.7078 24.2642 27.7078C22.593 27.7076 20.9983 26.9349 19.7385 25.523ZM17.0299 25.1826C17.1408 25.1778 17.2508 25.17 17.3593 25.1591C16.6779 23.9648 16.1698 22.6721 15.8418 21.2984C15.5734 20.2143 15.5727 19.1863 15.8396 17.9708C16.016 17.1684 16.4273 15.2905 18.0689 14.8041C19.5595 14.3629 20.4493 15.4269 22.1013 14.7323C22.8659 14.4108 23.2321 13.8269 23.3401 12.9839V8.88764C21.4791 9.23032 19.7792 9.89304 18.2759 10.864C15.0599 12.9433 11.375 18.0397 12.8221 22.2008C13.4799 24.096 15.1332 25.2676 17.0299 25.1826ZM17.1518 7.40151H18.4693L17.8199 8.97667L17.1518 9.39197V7.40151ZM24.2642 3.20368C26.6291 3.20368 27.2175 5.07326 28.2395 7.81044C27.0226 7.36317 25.7316 7.0564 24.3726 6.89638H24.1564C22.7975 7.0564 21.5056 7.36317 20.2894 7.81044C21.3046 5.04575 21.9272 3.20368 24.2642 3.20368ZM31.3767 9.39183L30.7093 8.97653C30.4713 8.46991 30.2598 7.93443 30.0599 7.40137H31.3767V9.39183ZM35.7071 22.2008C37.1542 18.0397 33.4693 12.9433 30.2526 10.864C28.7507 9.89304 27.05 9.23032 25.1884 8.88764V12.984C25.3046 13.8294 25.6554 14.408 26.4279 14.7325C28.0816 15.427 28.9684 14.3629 30.4603 14.8043C32.1018 15.2906 32.513 17.1685 32.6895 17.9709C32.9564 19.1864 32.9556 20.2151 32.6841 21.3055C32.3593 22.6739 31.8511 23.9665 31.1697 25.1593C33.2263 25.3657 35.0004 24.2365 35.7071 22.2008ZM48.5068 49.9043C47.5498 45.584 45.4221 41.5796 42.4059 38.3466C41.7947 37.6534 40.6405 36.6061 39.9104 36.0135C37.294 33.8881 34.2725 32.33 31.0589 31.4144C30.4329 31.209 29.0228 30.9187 28.376 30.8094V28.3078C28.9826 27.912 29.5515 27.4257 30.0754 26.8544C30.5912 26.9674 31.1439 27.0348 31.6824 27.0348C34.267 27.0348 36.5649 25.3636 37.4531 22.8065C38.8535 18.7819 36.5391 13.9377 33.2256 10.8545V8.35297L41.96 8.38889C42.469 8.38889 42.8818 7.97669 42.8843 7.46778C42.8866 6.95722 42.4738 6.54205 41.9632 6.53975L33.776 6.50696L39.122 1.60589C39.4989 1.26091 39.5239 0.677056 39.1789 0.299154C38.8347 -0.0763086 38.2493 -0.102053 37.8737 0.242923L32.0804 5.55306H29.3633C28.489 3.39011 27.2566 1.35522 24.2638 1.35522C21.2705 1.35522 20.0394 3.39011 19.1652 5.55306H16.4481L10.6548 0.242923C10.2793 -0.10124 9.69382 -0.0763086 9.34967 0.299154C9.00474 0.67692 9.02959 1.26078 9.40657 1.60589L14.6661 6.42661L6.56863 6.39301C6.05966 6.39301 5.64686 6.80519 5.64442 7.31412C5.64209 7.82454 6.0549 8.24065 6.56463 8.24214L15.3031 8.27885V10.8547C11.9895 13.9379 9.6753 18.782 11.0755 22.8066C11.9983 25.4608 14.4147 27.1391 17.1123 27.0302C17.5635 27.0097 18.0121 26.9509 18.4533 26.8545C18.977 27.4259 19.5461 27.9123 20.1527 28.3079V30.8097C15.9216 31.5234 11.9839 33.2819 8.61823 36.0135C4.30147 39.5174 1.22568 44.4651 0.0219171 49.9043C-0.0296556 50.1368 0.0105824 50.3801 0.134235 50.5836C0.257876 50.7872 0.455372 50.9349 0.685453 50.9962L18.5813 55.7913C18.8334 58.706 21.285 60.9999 24.2637 60.9999C27.2432 60.9999 29.6941 58.7057 29.947 55.7913L47.8428 50.9962C48.0729 50.9349 48.2704 50.787 48.3941 50.5836C48.5178 50.3801 48.5581 50.1368 48.5068 49.9043Z" fill="white"/>
</svg>
