<svg width="31" height="31" viewBox="0 0 31 31" fill="none" xmlns="http://www.w3.org/2000/svg">
<path d="M30.4554 15.2327C30.4554 22.9259 24.7544 29.286 17.3483 30.3181C16.6559 30.4142 15.9474 30.4643 15.2282 30.4643C14.3981 30.4643 13.5829 30.3982 12.7891 30.2701C5.53773 29.1024 0 22.8138 0 15.2327C0 6.82013 6.81813 0 15.2271 0C23.6362 0 30.4554 6.82013 30.4554 15.2327Z" fill="#1877F2"/>
<path d="M17.3478 12.2302V15.5485H21.4515L20.8017 20.0184H17.3478V30.3169C16.6554 30.413 15.9469 30.4632 15.2277 30.4632C14.3976 30.4632 13.5824 30.397 12.7886 30.2689V20.0184H9.00391V15.5485H12.7886V11.4885C12.7886 8.9696 14.8297 6.92676 17.3489 6.92676V6.92889C17.3564 6.92889 17.3628 6.92676 17.3702 6.92676H21.4526V10.7926H18.7851C17.9923 10.7926 17.3489 11.4362 17.3489 12.2292L17.3478 12.2302Z" fill="white"/>
</svg>
