<svg width="31" height="31" viewBox="0 0 31 31" fill="none" xmlns="http://www.w3.org/2000/svg">
<path d="M15.2624 0H15.193C6.80214 0 0 6.80414 0 15.1975V15.2669C0 23.6602 6.80214 30.4643 15.193 30.4643H15.2624C23.6532 30.4643 30.4554 23.6602 30.4554 15.2669V15.1975C30.4554 6.80414 23.6532 0 15.2624 0Z" fill="url(#paint0_linear_884_9573)"/>
<path d="M19.9382 6.19727H10.5144C7.91096 6.19727 5.79297 8.31588 5.79297 10.9201V19.544C5.79297 22.1483 7.91096 24.2669 10.5144 24.2669H19.9382C22.5417 24.2669 24.6597 22.1483 24.6597 19.544V10.9201C24.6597 8.31588 22.5417 6.19727 19.9382 6.19727ZM7.45856 10.9201C7.45856 9.23484 8.82965 7.86334 10.5144 7.86334H19.9382C21.623 7.86334 22.9941 9.23484 22.9941 10.9201V19.544C22.9941 21.2293 21.623 22.6008 19.9382 22.6008H10.5144C8.82965 22.6008 7.45856 21.2293 7.45856 19.544V10.9201Z" fill="white"/>
<path d="M15.2277 19.623C17.6487 19.623 19.6195 17.6528 19.6195 15.23C19.6195 12.8072 17.6498 10.8369 15.2277 10.8369C12.8056 10.8369 10.8359 12.8072 10.8359 15.23C10.8359 17.6528 12.8056 19.623 15.2277 19.623ZM15.2277 12.5041C16.7311 12.5041 17.9539 13.7272 17.9539 15.231C17.9539 16.7349 16.7311 17.958 15.2277 17.958C13.7243 17.958 12.5015 16.7349 12.5015 15.231C12.5015 13.7272 13.7243 12.5041 15.2277 12.5041Z" fill="white"/>
<path d="M20.027 11.546C20.679 11.546 21.2104 11.0156 21.2104 10.3624C21.2104 9.70917 20.6801 9.17871 20.027 9.17871C19.374 9.17871 18.8438 9.70917 18.8438 10.3624C18.8438 11.0156 19.374 11.546 20.027 11.546Z" fill="white"/>
<defs>
<linearGradient id="paint0_linear_884_9573" x1="4.44939" y1="26.0136" x2="26.0123" y2="4.45812" gradientUnits="userSpaceOnUse">
<stop stop-color="#FAAD4F"/>
<stop offset="0.35" stop-color="#DD2A7B"/>
<stop offset="0.62" stop-color="#9537B0"/>
<stop offset="1" stop-color="#515BD4"/>
</linearGradient>
</defs>
</svg>
