<svg width="95" height="88" viewBox="0 0 95 88" fill="none" xmlns="http://www.w3.org/2000/svg">
<circle cx="45.2145" cy="44.2614" r="42.5582" fill="white"/>
<g clip-path="url(#clip0_1937_3621)">
<path d="M58.1085 24.5651C57.8633 24.7692 57.6554 24.9402 57.469 25.1055C57.4102 25.1444 57.3844 25.2205 57.4017 25.285C57.419 25.3496 57.4363 25.4142 57.4536 25.4787C57.87 26.7743 58.0496 28.1334 58.024 29.5013C58.0164 30.3338 57.8623 31.1363 57.513 31.8989C57.0807 32.8683 56.3136 33.5352 55.3308 33.9139C53.9134 34.4782 52.441 34.6651 50.9451 34.42C49.4219 34.1592 48.145 33.4402 47.0514 32.3722C45.9421 31.3315 45.0995 30.0808 44.4921 28.675C43.9797 27.4512 43.6452 26.2029 43.4771 24.8869C43.299 23.6197 43.2774 22.3337 43.4453 21.0661C43.65 19.4195 44.1649 17.8974 45.3332 16.6617C46.1403 15.7995 47.0968 15.151 48.2145 14.7593C49.0151 14.4755 49.8172 14.2837 50.6555 14.3128C52.2128 14.3569 53.5885 14.8418 54.7209 15.9686C55.1003 16.3514 55.3563 16.7903 55.4732 17.3126C55.59 17.835 55.414 18.2973 55.0082 18.5906C54.3356 19.0938 53.5608 19.3014 52.721 19.1804C52.0707 19.0779 51.6367 18.6636 51.2342 18.1947C50.8648 17.7631 50.5112 17.3042 50.0988 16.8842C49.9996 16.7723 49.9004 16.6605 49.7697 16.6032C49.6621 16.6321 49.6637 16.7239 49.6594 16.7943C49.3866 17.9285 49.233 19.077 49.1712 20.2239C49.1168 21.4841 49.1699 22.7156 49.3207 23.967C49.5526 25.8657 49.994 27.6852 50.8658 29.3893C51.4801 30.5627 52.3023 31.565 53.4543 32.2482C53.7272 32.4058 53.7487 32.4 53.9609 32.1586C54.4539 31.5882 54.7617 30.929 54.9389 30.2126C55.2589 28.9965 55.2058 27.765 54.9904 26.5309C54.9789 26.4879 54.9674 26.4448 54.9558 26.4018C54.9501 26.3803 54.9228 26.3645 54.9112 26.3215C54.5596 26.3003 54.2267 26.4357 53.8651 26.4634C52.9207 26.5549 52.0121 26.5216 51.1719 26.0547C50.2498 25.5405 50.1079 24.4943 50.4514 23.7102C50.7734 22.9318 51.4203 22.5048 52.1778 22.2326C53.36 21.8235 54.4969 21.9341 55.5413 22.6463C55.8472 22.8411 56.1059 23.1178 56.3431 23.4003C56.4034 23.4533 56.4265 23.5394 56.5572 23.5967C57.0145 23.1512 57.4718 22.7057 57.8258 22.2187C57.8242 22.1268 57.7912 22.0895 57.7581 22.0522C56.7387 20.5722 56.8416 18.976 57.9968 17.6053C58.7708 16.7059 59.7447 16.1219 60.8624 15.7302C61.7275 15.4292 62.633 15.2788 63.5631 15.3064C65.0014 15.3363 66.2264 15.8616 67.2753 16.8493C67.7366 17.2793 68.0802 17.787 68.4024 18.3005C68.447 18.3808 68.47 18.4669 68.5949 18.5026C68.7352 18.1651 68.9027 17.8434 69.0215 17.5117C69.1717 17.1254 69.2789 16.7507 69.3804 16.3544C69.5075 15.882 69.7497 15.4942 70.1886 15.2382C71.1036 14.6931 72.0995 14.4493 73.1618 14.6261C73.3083 14.656 73.4332 14.6918 73.5639 14.749C74.0163 14.9738 74.1731 15.3009 73.9483 15.7533C73.3169 17.0989 72.822 18.5234 72.0269 19.7745C71.4797 20.6593 70.8448 21.4754 70.0289 22.1323C69.7464 22.3695 69.6261 22.6093 69.6596 22.9925C69.7516 24.2827 69.4918 25.5519 68.9277 26.7181C68.3794 27.8569 67.5062 28.6445 66.2909 29.0163C64.8446 29.473 63.3691 29.4762 61.9232 28.9871C60.0694 28.3534 58.8263 27.0718 58.27 25.1677C58.2181 24.974 58.1719 24.8018 58.1085 24.5651ZM66.7245 20.7339C66.6711 20.4484 66.5703 20.2447 66.4854 20.0137C66.0952 18.9879 65.5716 18.067 64.711 17.3518C64.0256 16.7742 63.2373 16.501 62.336 16.581C61.9528 16.6145 61.6315 16.7929 61.3879 17.0888C61.0382 17.5055 61.0201 18.0409 61.0825 18.5317C61.1694 19.2005 61.0544 19.1159 61.709 19.1481C61.7305 19.1424 61.7578 19.1581 61.7793 19.1524C62.2675 19.2523 62.6553 19.4944 62.7722 20.0167C62.8702 20.3826 62.931 20.7815 62.9372 21.149C62.9418 21.4245 63.0798 21.5952 63.2924 21.6997C63.8051 21.9775 64.3436 22.1793 64.9178 22.2561C65.0858 22.2803 65.2149 22.2457 65.3813 22.178C65.7887 21.9766 66.1515 21.6948 66.5143 21.4131C66.7495 21.2578 66.8971 21.0337 66.7245 20.7339ZM67.0872 23.9816C65.925 24.2931 64.7627 24.6045 63.5728 24.5542C63.5098 24.6634 63.5486 24.7222 63.5659 24.7868C63.9818 25.7365 64.4723 26.62 65.2999 27.298C65.6232 27.5574 65.672 27.5674 65.9372 27.2656C66.5851 26.5845 66.8841 25.7201 67.0308 24.8042C67.1023 24.5543 67.1464 24.2887 67.0872 23.9816ZM54.4576 25.0589C54.4618 24.9886 54.4561 24.967 54.4503 24.9455C54.4445 24.924 54.4388 24.9025 54.4272 24.8594C54.1078 24.1838 53.6922 23.58 53.053 23.1746C52.7471 22.9797 52.6452 23.0301 52.5265 23.3618C52.2932 23.9549 52.6473 24.7597 53.2734 25.0302C53.6497 25.2292 54.0502 25.2603 54.4576 25.0589Z" fill="#CB0303"/>
<path d="M37.3314 57.234C37.4118 57.1894 37.5078 57.1175 37.6328 57.1533C37.7046 57.2494 37.7335 57.357 37.7408 57.4703C38.0207 58.6872 38.2145 59.9271 38.2734 61.18C38.3951 63.2697 38.2411 65.3641 38.0872 67.4584C38.0434 68.0699 37.9781 68.6872 37.8856 69.2887C37.8471 69.5758 37.9463 69.6876 38.2277 69.7045C38.3468 69.7187 38.4329 69.6957 38.5405 69.6668C39.1274 69.5327 39.4671 69.1648 39.5928 68.6006C39.6984 68.134 39.7553 67.6574 39.8121 67.1808C39.9534 65.2974 40.0301 63.4314 40.0307 61.5396C40.0213 59.6967 39.9747 57.8868 39.496 56.1004C39.4729 56.0143 39.4499 55.9282 39.5302 55.8836C39.8127 55.6464 40.1167 55.4035 40.4049 55.1879C40.4983 55.2782 40.5056 55.3916 40.5287 55.4776C40.6644 56.1564 40.7786 56.8409 40.9359 57.5139C41.122 58.2945 41.2593 59.0651 41.4454 59.8457C41.816 61.315 42.2024 62.7571 42.8471 64.1299C43.2169 64.9074 43.6828 65.6131 44.3408 66.1749C45.3552 67.0335 46.5451 67.0837 47.6912 66.4537C47.9537 66.3141 48.1443 66.0785 48.2804 65.8114C48.3949 65.55 48.5036 65.2671 48.5478 65.0015C48.7234 64.1932 48.7252 63.3392 48.7601 62.5224C48.7786 62.333 48.754 62.155 48.7824 61.9167C49.663 62.5343 50.5789 62.681 51.5532 62.443C52.0267 62.3162 52.5044 62.1189 52.883 61.8099C53.0909 61.6388 53.25 61.4578 53.3976 61.2337C53.5294 61.0369 53.6282 60.8028 53.7757 60.5787C53.8072 60.5242 53.8388 60.4696 53.8703 60.415C53.876 60.4365 53.9033 60.4523 53.9033 60.4523C54.0355 60.6014 54.1893 60.7448 54.3746 60.8335C54.5541 60.9008 54.7651 60.9134 54.9645 60.883C55.2774 60.8454 55.6102 60.71 55.8885 60.5432C56.3059 60.293 56.6571 59.9682 57.0084 59.6433C57.2694 59.4119 57.5403 59.1317 57.5399 58.7858C57.5526 58.5748 57.4576 58.3926 57.3411 58.2162C57.1974 58.0241 57.0221 57.8865 56.8841 57.7158C56.7403 57.5237 56.5966 57.3315 56.4743 57.1336C56.2241 56.7162 56.0169 56.2873 55.8312 55.8526C55.2915 54.6131 54.8478 53.3018 54.5176 51.9831C54.4541 51.7463 54.3964 51.5311 54.3545 51.2886C54.3068 51.0245 54.2807 50.7547 54.233 50.4907C54.1376 49.9626 54.0423 49.4345 53.8881 48.9453C53.7628 48.5636 53.5429 48.3457 53.1582 48.2873C52.2107 48.1951 51.3829 48.4631 50.6746 49.0912C50.6 49.1573 50.537 49.2665 50.4021 49.2795C49.8898 49.3476 49.4063 49.5233 48.9343 49.742C48.1725 50.0846 47.5488 50.5977 47.0903 51.2973C46.5158 52.1663 46.2672 53.1326 46.1708 54.1504C46.008 56.0395 46.2499 57.8893 47.0415 59.6381C47.0861 59.7184 47.1149 59.826 47.1164 59.9178C47.1108 61.1881 47.1697 62.4411 47.0937 63.7072C47.0768 63.9885 47.0326 64.2541 46.9454 64.5312C46.7613 64.1884 46.6202 63.834 46.5164 63.4466C46.1431 62.1395 45.807 60.7993 45.5629 59.4575C45.391 58.5578 45.2464 57.6738 45.0745 56.774C44.8492 55.5887 44.6238 54.4034 44.2694 53.2527C44.2232 53.0805 44.1341 52.9199 44.0449 52.7592C43.8062 52.3849 43.4944 52.1685 43.0451 52.1274C42.2284 52.0925 41.5139 52.3532 40.8398 52.7645C40.2617 53.1039 39.8705 53.624 39.4132 54.0695C39.2268 54.2348 39.095 54.4316 38.8755 54.5596C38.8482 54.5438 38.8267 54.5496 38.8209 54.5281C38.7548 54.4535 38.7102 54.3732 38.6441 54.2986C37.9368 53.3809 37.0163 52.9585 35.8625 53.1293C34.6656 53.3116 33.6429 53.8855 32.8532 54.8122C32.3601 55.3826 32.0738 56.0361 32.1408 56.8024C32.1946 57.4339 32.4937 57.8613 33.1083 58.0888C33.8205 58.3362 34.5323 58.2378 35.2326 58.0963C35.9744 57.8514 36.65 57.5319 37.3314 57.234ZM50.0629 56.1064C49.9022 54.9038 49.8548 53.6938 49.9969 52.5024C50.038 52.053 50.1279 51.6137 50.2939 51.2002C50.3196 51.1241 50.3396 51.0264 50.4357 50.9545C50.4922 51.4238 50.5488 51.8931 50.621 52.3351C50.8972 53.9682 51.2321 55.5624 51.8956 57.0917C52.0251 57.403 52.1547 57.7143 52.2785 58.0041C52.3231 58.0844 52.3519 58.1921 52.3319 58.2897C52.3128 59.0791 52.196 59.8486 51.9055 60.5724C51.864 60.6758 51.8225 60.7792 51.7106 60.8783C51.3685 60.4625 51.1713 59.9848 50.9526 59.5128C50.4748 58.4182 50.2337 57.2602 50.0629 56.1064ZM34.4567 55.0285C34.3928 54.4458 34.6911 54.1814 35.2595 54.2366C35.8495 54.2862 36.2662 54.6359 36.6356 55.0675C36.8066 55.2754 36.9346 55.4949 37.0684 55.7358C37.1188 55.8377 37.1476 55.9453 37.03 56.023C36.6557 56.2617 36.2483 56.4631 35.7774 56.4278C35.1659 56.384 34.6774 55.9382 34.4928 55.2495C34.4813 55.2064 34.4582 55.1203 34.4567 55.0285Z" fill="#CB0303"/>
<path d="M67.4449 57.9536C58.3631 57.5497 56.0557 68.8255 50.6033 74.0466C47.2075 77.817 42.9336 78.224 40.6382 73.1873C35.3372 71.655 40.4404 79.4226 44.7428 78.7773C50.0533 78.6231 54.4338 74.9118 57.2162 70.6599C59.5904 67.2094 61.0667 63.0768 64.2454 60.2181C65.6285 58.5787 67.9735 59.496 67.7608 61.6291C67.6882 62.133 67.6544 62.6957 68.1299 63.0066C71.091 64.2432 70.9098 57.971 67.4449 57.9536Z" fill="#CB0303"/>
<path d="M85.2844 45.1431C85.0987 44.7085 84.7655 44.4979 84.3377 44.451C83.6228 44.3657 82.9944 44.6033 82.4395 45.0289C82.2315 45.1999 82.127 45.4125 82.1589 45.7038C82.2328 46.2376 82.2793 46.7557 82.3317 47.2954C82.429 48.2612 82.4344 49.2286 82.2016 50.1676C82.1002 50.5639 81.9499 50.9502 81.6963 51.295C81.4853 51.2823 81.3215 51.1878 81.1578 51.0932C80.4383 50.7324 79.8563 50.1963 79.3216 49.5783C78.3126 48.3953 77.5446 47.0786 76.8453 45.6743C76.7834 45.5294 76.7703 45.3945 76.8003 45.248C77.1342 43.5669 77.3216 41.8557 77.3468 40.1419C77.4085 37.7032 77.2434 35.2791 76.4153 32.9635C76.1316 32.1629 75.7675 31.4069 75.2428 30.7401C74.928 30.3401 74.5602 30.0003 74.0763 29.8301C73.6139 29.6541 73.1388 29.6891 72.6753 29.7672C71.711 29.9564 70.902 30.3808 70.3374 31.201C69.8517 31.8848 69.6645 32.6501 69.5866 33.4783C69.4664 35.01 69.7295 36.5081 70.057 37.989C70.4942 39.8788 71.082 41.7283 71.7932 43.5216C72.4483 45.1915 73.2052 46.8111 74.1443 48.3357C74.2335 48.4964 74.2624 48.604 74.1951 48.7835C73.9146 49.4584 73.6068 50.1176 73.1898 50.7138C72.8259 51.2496 72.4074 51.7539 71.8839 52.1248C71.4408 52.4512 71.0088 52.4747 70.5391 52.1853C69.966 51.8544 69.5362 51.3698 69.1711 50.8679C68.2697 49.6561 67.7699 48.2214 67.3189 46.7966C67.3074 46.7536 67.2901 46.689 67.3216 46.6344C67.3746 46.5741 67.4392 46.5568 67.5038 46.5395C68.7102 45.9625 69.4784 45.0415 69.5413 43.6405C69.5943 42.2884 69.201 41.0789 68.3027 40.0508C67.8283 39.4859 67.208 39.2369 66.4904 39.3138C66.3555 39.3269 66.2206 39.34 66.0914 39.3746C64.6851 39.636 63.687 40.3879 63.2021 41.7635C62.8974 42.6064 62.8525 43.472 62.9052 44.3575C62.9272 44.6977 62.9764 45.0536 62.9983 45.3937C62.8849 45.401 62.8246 45.348 62.7427 45.3007C62.388 45.0959 62.039 44.9126 61.7057 44.702C61.1426 44.3223 60.2271 44.5215 59.8328 44.8578C59.6249 45.0289 59.5891 45.1538 59.7502 45.4105C59.9386 45.683 60.0466 46.0001 60.1331 46.323C60.4272 47.4206 60.6352 48.5414 60.8648 49.6563C61.1232 50.8789 61.3658 52.1288 61.5166 53.3803C61.5773 53.7792 61.6166 54.1839 61.6028 54.649C61.5251 54.5314 61.459 54.4568 61.4202 54.398C61.1038 53.9061 60.8032 53.3868 60.5299 52.8834C59.7373 51.3887 59.0953 49.8537 58.5278 48.2525C58.2499 47.4735 58.0307 46.6556 57.7528 45.8765C57.5713 45.3715 57.4271 44.8334 57.1811 44.3457C56.9178 43.7934 56.4927 43.5844 55.8885 43.654C55.7751 43.6613 55.6617 43.6686 55.5541 43.6975C54.699 43.9497 54.1482 44.3049 54.2686 45.3568C54.3251 45.8261 54.3817 46.2954 54.5028 46.7474C54.8331 48.066 55.2064 49.3732 55.7031 50.6242C56.2501 51.9771 56.856 53.2911 57.7243 54.4656C58.3382 55.2931 59.0051 56.0602 59.9272 56.5743C60.7186 57.0313 61.5138 57.0719 62.3517 56.7552C62.7491 56.6025 63.02 56.3223 63.0884 55.8888C63.1568 55.4552 63.1333 55.0232 63.1156 54.6127C63.0436 53.2248 62.7779 51.8889 62.5064 50.5314C62.248 49.3088 61.9839 48.0647 61.6552 46.8378C61.6321 46.7518 61.5875 46.6714 61.6348 46.5896C61.6563 46.5838 61.6778 46.578 61.7051 46.5938C62.2105 46.7582 62.6887 46.9069 63.1983 47.0011C63.3448 47.031 63.3736 47.1386 63.4024 47.2463C63.597 47.8862 63.7915 48.5261 64.0721 49.143C64.5615 50.2806 65.1255 51.3521 66.0264 52.218C67.6804 53.8279 69.8466 54.0779 71.8982 53.2975C73.0904 52.8396 73.9736 52.0032 74.68 50.9374C74.8748 50.6314 75.0696 50.3254 75.2372 50.0037C75.3348 50.0237 75.3736 50.0825 75.4067 50.1198C75.6769 50.4395 75.9414 50.7378 76.2274 51.0302C76.9085 51.6782 77.6584 52.2385 78.5401 52.602C79.933 53.1515 81.3209 53.0795 82.6796 52.554C84.0382 52.0285 84.881 51.0414 85.241 49.63C85.4996 48.615 85.5844 47.5541 85.5344 46.5064C85.5812 46.0786 85.5032 45.6151 85.2844 45.1431ZM66.7423 41.1148C68.06 42.3304 68.129 44.8264 67.0878 45.5898C66.7342 45.1309 66.4891 41.8055 66.7423 41.1148ZM75.5421 42.1019C75.5436 42.1937 75.5179 42.2698 75.5194 42.3617C75.4979 42.3674 75.4979 42.3674 75.4764 42.3732C75.426 42.2714 75.3756 42.1695 75.341 42.0404C74.8109 40.4062 74.2965 38.7447 73.8955 37.0759C73.5406 35.5792 73.2991 34.0753 73.2786 32.5352C73.2782 32.1893 73.2562 31.8492 73.3261 31.5075C73.4826 31.4886 73.5172 31.6177 73.5775 31.6708C74.1337 32.283 74.5135 33.0117 74.7642 33.775C75.457 35.7578 75.5886 37.7987 75.5853 39.8526C75.6307 40.6248 75.5943 41.3497 75.5421 42.1019Z" fill="#CB0303"/>
<path d="M33.8894 66.7635C33.312 65.2112 32.7934 63.62 32.3236 62.0388C31.9576 60.8451 31.6992 59.6225 31.425 58.4272C31.3485 58.0555 31.2447 57.6681 31.1682 57.2964C30.8433 55.6534 30.5399 54.0045 30.215 52.3615C30.1746 52.2108 30.2219 52.1289 30.3337 52.0298C31.0262 51.429 31.7188 50.8282 32.4171 50.2489C34.2296 48.7482 36.1297 47.3164 38.1132 46.0236C40.2516 44.6202 42.4792 43.3774 44.8017 42.3168C46.1 41.7382 47.4371 41.2185 48.7973 40.7848C49.6251 40.5168 50.5091 40.3723 51.3716 40.2334C53.0104 39.9788 54.6324 40.0056 56.2348 40.4759C56.756 40.6131 57.2514 40.8264 57.7926 40.8659C58.74 40.9581 59.634 40.7647 60.4703 40.356C60.8777 40.1546 61.2793 39.9316 61.5487 39.5596C61.8339 39.1602 61.7516 38.767 61.3149 38.5149C61.1785 38.4361 61.0263 38.3847 60.8798 38.3547C60.6573 38.299 60.4132 38.249 60.1849 38.1718C58.9473 37.8575 57.7054 37.6135 56.4394 37.5376C54.1456 37.414 51.891 37.6951 49.6783 38.2188C48.7256 38.451 47.8001 38.699 46.8704 39.0174C45.8546 39.3587 44.8445 39.7217 43.846 40.1276C41.6668 41.0345 39.5711 42.0805 37.5157 43.2771C35.9795 44.1732 34.4764 45.1065 33.0236 46.1417C31.8591 46.9612 30.7062 47.8238 29.5862 48.7237C28.8506 49.336 28.0605 49.9168 27.3522 50.5449C25.9944 51.7622 24.6423 53.0011 23.2572 54.2027C22.3941 54.9415 21.5309 55.6803 20.5685 56.3073C19.9159 56.7128 19.7264 56.6944 19.166 56.1525C19.0726 56.0622 19.0007 55.9661 18.9288 55.87C18.614 55.4699 18.3795 55.0253 18.1608 54.5533C17.9636 54.0756 17.8152 53.6078 17.5534 53.1474C17.2801 52.6439 16.8435 52.3918 16.255 52.4342C15.8933 52.4619 15.5374 52.5111 15.1889 52.6737C14.5447 52.9386 14.0758 53.341 13.8111 53.9887C13.5463 54.6363 13.5356 55.2851 13.644 55.9481C13.894 57.3114 14.6028 58.321 15.9039 58.872C17.0685 59.3443 18.2627 59.3242 19.4753 59.1146C21.5446 58.7447 23.3563 57.844 25.0212 56.5675C25.4056 56.2799 25.8056 55.9651 26.1684 55.6834C26.223 55.7149 26.213 55.7637 26.2246 55.8067C26.4826 57.9752 26.9402 60.1133 27.435 62.2183C27.6846 63.2357 27.9987 64.2357 28.2855 65.22C28.5088 65.9676 28.7695 66.6821 29.0302 67.3966C29.5053 68.6533 29.9962 69.8828 30.5575 71.1165C31.0007 72.082 31.3794 73.0647 31.8657 74.0186C32.0944 74.4418 32.4177 74.7012 32.9158 74.7523C33.701 74.8418 34.4659 74.683 35.1903 74.3735C35.5447 74.2324 35.8602 74.0325 36.1312 73.7523C36.4021 73.4721 36.462 73.1792 36.364 72.8133C36.3063 72.5981 36.2271 72.3886 36.1207 72.1634C35.3449 70.3874 34.5633 68.5899 33.8894 66.7635Z" fill="#CB0303"/>
<path d="M8.3677 35.1785C8.03476 34.022 7.76638 32.8483 7.50377 31.696C7.38688 31.1737 7.27 30.6514 7.19615 30.1175C7.04425 29.1201 7.41241 28.514 8.35056 28.055C9.02622 27.7355 9.72073 27.5725 10.4629 27.6735C11.0156 27.7561 11.3935 28.047 11.5592 28.5793C11.879 29.6009 12.0755 30.6786 12.3093 31.7233C12.4262 32.2456 12.5488 32.7894 12.6657 33.3117C12.9499 34.4582 13.2613 35.6205 13.5885 36.7554C14.3928 39.5849 15.5141 42.3064 16.9038 44.9099C17.4174 45.8796 17.9682 46.8162 18.5406 47.747C18.7347 48.041 18.762 48.0568 19.0618 47.8842C19.538 47.5951 20.0026 47.263 20.44 46.9151C20.9734 46.4954 21.5614 46.1071 22.1279 45.7246C22.4807 45.4917 22.8539 45.507 23.2145 45.7334C23.4932 45.9125 23.7403 46.1461 23.8914 46.4517C24.1143 46.8533 24.0702 47.1189 23.7289 47.3949C22.6893 48.2502 21.6051 49.0251 20.416 49.6667C19.8695 49.9515 19.3172 50.2149 18.7476 50.4136C18.4148 50.5489 18.0531 50.5766 17.6584 50.5671C16.5387 50.521 15.5967 50.1045 14.8048 49.3016C13.9915 48.5046 13.3918 47.558 12.8352 46.5998C11.7666 44.7639 10.9016 42.8272 10.1443 40.8617C9.74253 39.7929 9.38384 38.7125 9.04667 37.6264C8.81177 36.8358 8.60838 35.9906 8.3677 35.1785Z" fill="#CB0303"/>
<path d="M21.8944 38.5687C22.7321 40.4896 23.8349 42.1088 25.6319 43.219C25.7233 42.8716 25.6583 42.543 25.5718 42.2201C25.3454 41.2888 25.0113 40.3864 24.5481 39.5186C24.3136 39.0739 24.3378 38.906 24.7767 38.65C25.1725 38.4055 25.6245 38.2844 26.1111 38.2924C26.2948 38.2893 26.4313 38.3681 26.5362 38.5014C26.7676 38.7624 26.9402 39.0622 27.0971 39.3892C27.4726 40.1883 27.8267 40.9931 28.0301 41.8382C28.0993 42.0965 28.147 42.3606 28.1674 42.6088C28.2489 43.602 27.8766 44.2785 26.9384 44.7375C25.6516 45.3591 24.2911 45.4468 22.9227 45.0753C21.2831 44.638 19.9958 43.6219 18.9737 42.3041C17.7748 40.7568 17.0263 38.9965 16.6537 37.0894C16.4472 36.0605 16.4302 35.0501 16.7046 34.0077C17.1061 32.493 18.0507 31.4555 19.4236 30.8108C20.3029 30.3907 21.2399 30.1857 22.2047 30.3425C23.435 30.5434 24.2898 31.237 24.8007 32.3689C25.2555 33.3774 25.1591 34.3952 24.7326 35.3861C24.2545 36.5292 23.5194 37.4874 22.504 38.1747C22.3549 38.3069 22.1569 38.4292 21.8944 38.5687ZM21.3842 32.0156C20.7609 32.8747 20.8846 36.694 21.5096 37.2185C22.1464 36.8403 22.9042 35.6222 22.8038 34.4726C22.7107 33.4364 22.2375 32.6174 21.3842 32.0156Z" fill="#CB0303"/>
<path d="M24.6285 27.9352C24.3703 28.0044 24.1078 28.1439 23.861 28.2562C23.5124 28.4188 23.1481 28.6087 22.7995 28.7713C22.022 29.1411 21.2725 28.9267 20.8254 28.3775C20.4833 27.9617 20.5386 27.3932 20.9545 27.0511C21.3703 26.709 21.8811 26.5491 22.353 26.3303C22.8838 26.0728 23.4419 25.831 23.9569 25.6007C24.0199 25.4915 23.9695 25.3897 23.9407 25.2821C23.8081 24.7871 23.6969 24.2863 23.6562 23.7897C23.5389 22.9214 23.8009 22.436 24.6 22.0604C25.0662 21.8202 25.5512 21.7363 26.0866 21.7543C26.6435 21.7666 27.0586 22.0245 27.3262 22.5064C27.5549 22.9296 27.7033 23.3973 27.8459 23.8435C27.8748 23.9511 27.8879 24.086 27.9928 24.2194C28.2353 24.1775 28.4836 24.1571 28.7419 24.0879C28.9786 24.0244 29.2054 24.0098 29.4379 24.0167C29.9891 24.0074 30.3927 24.2223 30.719 24.6654C30.952 25.0182 30.9078 25.2838 30.555 25.5167C30.1161 25.7727 29.6111 25.9542 29.1276 26.1299C28.9612 26.1976 28.7832 26.2222 28.6341 26.3544C28.6545 26.6027 28.7452 26.8552 28.8302 27.0862C29.2046 28.1393 29.5733 29.1708 29.9693 30.2181C30.9396 32.6341 31.9314 35.0443 33.2718 37.2918C33.5278 37.7307 33.8484 38.1523 34.1632 38.5524C34.583 39.0858 35.1503 39.3952 35.7434 39.6284C35.8195 39.6542 35.8956 39.6799 35.9559 39.733C36.1527 39.8648 36.1989 40.037 36.0455 40.2395C35.9395 40.3602 35.8334 40.4809 35.6885 40.5428C35.0932 40.8177 34.4963 41.0007 33.8287 40.8335C32.4934 40.4993 31.2627 39.9525 30.2625 38.9748C29.4822 38.215 28.8568 37.3445 28.3275 36.4021C27.1969 34.4212 26.2486 32.3455 25.4451 30.2078C25.1844 29.4933 24.9295 28.8003 24.7119 28.0743C24.7277 28.047 24.7377 27.9982 24.6285 27.9352Z" fill="#CB0303"/>
<path d="M37.5728 28.7118C37.9083 28.4143 38.2007 28.1283 38.499 27.8638C38.7972 27.5994 39.0739 27.3407 39.4713 27.1881C39.7669 27.0858 40.0524 27.0324 40.3826 27.0592C40.5506 27.0834 40.7185 27.1076 40.7919 27.2956C40.8654 27.4835 40.732 27.5885 40.6202 27.6876C40.114 28.1231 39.6079 28.5587 39.1621 29.0472C39.0502 29.1464 38.9384 29.2455 38.8869 29.3977C38.9918 29.5311 39.1441 29.5826 39.2805 29.6614C39.8536 29.9923 40.4267 30.3231 40.9095 30.7474C41.727 31.4741 42.153 32.375 42.1442 33.4616C42.1393 34.1319 42.0698 34.8195 41.7993 35.4456C41.43 36.3058 40.7747 36.8736 39.9211 37.2176C39.2554 37.4883 38.5609 37.6513 37.813 37.5288C36.7506 37.352 36.0107 36.7429 35.589 35.7717C34.9816 34.3658 35.0933 32.9748 35.6643 31.5761C35.8046 31.2387 35.9721 30.9169 36.1339 30.5737C36.029 30.4403 35.8825 30.4104 35.7461 30.3316C35.2606 30.0695 34.7752 29.8074 34.3212 29.4908C33.511 28.8774 33.0923 28.0899 33.2103 27.0664C33.2698 26.4276 33.5634 25.8876 33.9992 25.4478C34.382 25.0684 34.8036 24.7479 35.2913 24.5018C36.1003 24.0774 37.213 24.356 37.7677 24.8764C38.2232 25.2849 38.3831 25.7957 38.2202 26.393C38.1745 26.5667 38.0957 26.7031 37.9623 26.8081C37.6856 27.0668 37.3712 27.0126 37.1871 26.6698C37.0302 26.3427 36.8576 26.0429 36.5617 25.7993C36.3533 25.6244 36.1193 25.5257 35.8337 25.5791C35.6342 25.6095 35.5654 25.6971 35.5685 25.8809C35.5847 26.1995 35.6597 26.4793 35.805 26.7633C36.2078 27.5781 36.8129 28.2003 37.5728 28.7118ZM37.5703 31.4576C37.4873 31.6644 37.4358 31.8166 37.3901 31.9903C37.0927 32.9466 37.0278 33.9098 37.3792 34.8768C37.5664 35.4033 37.877 35.8737 38.3525 36.1846C38.8941 36.5701 39.039 36.5082 39.2664 35.8936C39.5712 35.0507 39.5572 34.224 39.1974 33.3976C38.8491 32.6144 38.2714 32.0079 37.5703 31.4576Z" fill="#CB0303"/>
<path d="M32.0254 21.201C32.133 21.1721 32.2191 21.1491 32.3267 21.1202C32.9624 20.996 33.4379 21.3069 33.6266 21.9253C33.7808 22.4146 33.7728 22.9012 33.6298 23.4008C33.4769 23.9493 33.2579 24.4232 33.0016 24.9302C32.8398 25.2735 32.2114 25.511 31.8524 25.3766C31.7002 25.3251 31.5952 25.1917 31.6467 25.0395C31.7908 24.2858 31.569 23.6301 31.2338 22.9817C31.1273 22.7565 31.0638 22.5198 31.0219 22.2772C30.9339 21.8625 31.1875 21.5177 31.6653 21.3205C31.7829 21.2429 31.8905 21.214 32.0254 21.201C32.0196 21.1794 32.0196 21.1794 32.0254 21.201Z" fill="#CB0303"/>
</g>
<defs>
<clipPath id="clip0_1937_3621">
<rect width="79.2667" height="69.3603" fill="white" transform="translate(0 20.5157) rotate(-15)"/>
</clipPath>
</defs>
</svg>
