<svg width="31" height="31" viewBox="0 0 31 31" fill="none" xmlns="http://www.w3.org/2000/svg">
<path d="M15.2624 0H15.193C6.80215 0 0 6.80414 0 15.1975V15.2668C0 23.6602 6.80215 30.4643 15.193 30.4643H15.2624C23.6532 30.4643 30.4554 23.6602 30.4554 15.2668V15.1975C30.4554 6.80414 23.6532 0 15.2624 0Z" fill="#007EBB"/>
<path d="M7.26086 10.1272C6.85967 9.75469 6.66016 9.29361 6.66016 8.74501C6.66016 8.19641 6.86074 7.71506 7.26086 7.3415C7.66206 6.96901 8.17849 6.78223 8.81122 6.78223C9.44395 6.78223 9.94011 6.96901 10.3402 7.3415C10.7414 7.71399 10.9409 8.18254 10.9409 8.74501C10.9409 9.30749 10.7404 9.75469 10.3402 10.1272C9.93904 10.4997 9.43007 10.6865 8.81122 10.6865C8.19236 10.6865 7.66206 10.4997 7.26086 10.1272ZM10.6038 12.2639V23.6842H6.99625V12.2639H10.6038Z" fill="#FEFFFC"/>
<path d="M22.6157 13.3911C23.402 14.245 23.7947 15.4169 23.7947 16.909V23.4815H20.3686V17.3722C20.3686 16.6198 20.1733 16.0349 19.7839 15.6186C19.3944 15.2024 18.8695 14.9932 18.2122 14.9932C17.5549 14.9932 17.0299 15.2013 16.6405 15.6186C16.251 16.0349 16.0558 16.6198 16.0558 17.3722V23.4815H12.6094V12.231H16.0558V13.7231C16.4047 13.2257 16.8752 12.8329 17.4664 12.5437C18.0575 12.2544 18.7222 12.1104 19.4616 12.1104C20.7783 12.1104 21.8304 12.5373 22.6157 13.3911Z" fill="#FEFFFC"/>
</svg>
