<svg width="63" height="72" viewBox="0 0 63 72" fill="none" xmlns="http://www.w3.org/2000/svg">
<path d="M48.3895 0.0403214C45.2368 0.361613 42.6055 2.69098 41.7758 5.90391C41.4914 7.00433 41.4914 8.57867 41.7758 9.69516C42.1235 11.0285 42.811 12.2655 43.7592 13.2374C44.7153 14.2173 45.9874 14.9644 47.2675 15.3097C48.0419 15.5186 49.559 15.5989 50.365 15.4704C51.2183 15.3338 52.4036 14.9001 53.1385 14.4503C54.3158 13.7274 55.4932 12.4342 56.1174 11.1651C56.631 10.1209 56.8838 8.74734 56.8206 7.35776C56.7653 6.2011 56.5678 5.39787 56.0542 4.33761C54.6556 1.42188 51.6055 -0.289003 48.3895 0.0403214Z" fill="#D60F0F"/>
<path d="M39.856 17.3817C39.1607 17.5665 38.3152 18.0324 37.7779 18.5143C37.2801 18.9721 37.2959 18.948 30.6506 29.2776C30.2634 29.872 29.6155 30.8841 29.2046 31.5266C28.7937 32.1692 28.1853 33.109 27.8613 33.615C27.5294 34.1211 26.7551 35.3259 26.1308 36.2898C25.5145 37.2456 24.9456 38.1533 24.8666 38.2979C24.6769 38.6754 24.6295 39.6955 24.7955 40.2015L24.9298 40.6032L24.0448 41.9124C22.0536 44.8442 20.8841 46.5471 20.8288 46.5792C20.7972 46.5953 19.6041 45.784 18.1659 44.7639C15.5189 42.8843 14.9342 42.5389 14.1914 42.3783C13.662 42.2658 12.8007 42.2658 12.2634 42.3783C11.6155 42.5148 10.7858 42.9566 10.288 43.4305C9.95611 43.7438 8.59702 45.6474 5.27832 50.4749C2.78139 54.1215 0.647937 57.2622 0.545215 57.471C0.150132 58.2742 0 58.965 0 60.0012C0.00790167 60.8205 0.0395084 61.0695 0.221247 61.6237C0.458297 62.3787 1.01141 63.2623 1.59614 63.8406L1.98332 64.2342L2.31519 63.5997C3.36611 61.6157 5.08078 60.2181 7.18262 59.6237C7.71994 59.471 8.0123 59.447 9.15804 59.447C10.3038 59.447 10.5961 59.471 11.1335 59.6237C11.9789 59.8646 13.2195 60.4912 13.8832 61.0133C14.2151 61.2703 14.4443 61.3988 14.4759 61.3506C14.547 61.2382 19.3038 54.242 20.7735 52.0894C21.8955 50.4427 26.9052 43.0691 27.1897 42.6434C27.482 42.2096 27.561 42.1454 27.8455 42.0972C28.3038 42.0249 28.8569 41.7196 29.2046 41.3502C29.3626 41.1815 31.4329 38.1854 33.8113 34.6994C38.9078 27.2053 38.8446 27.2856 38.8841 27.39C38.8999 27.4382 38.5049 29.6953 38.0071 32.4102C36.9719 38.0328 36.8771 38.7477 37.0114 40.057C37.2248 42.2819 37.6199 43.3502 39.2792 46.3061C40.1563 47.8644 44.7867 56.1135 46.0826 58.4349C48.8323 63.3507 52.396 69.7203 52.6647 70.1701C53.202 71.1099 54.0158 71.7123 54.9166 71.8328C56.7182 72.0737 58.3065 70.7645 58.4092 68.9572C58.4487 68.1861 58.3855 68.0014 57.1765 65.182C56.655 63.9691 54.2766 58.3787 51.8824 52.756L47.5365 42.5389L48.1212 39.3421C48.7533 35.9444 48.864 35.3179 49.0536 34.2978C49.1168 33.9444 49.4566 32.0969 49.8122 30.2013C50.7208 25.3177 50.705 25.4382 50.6576 24.3779C50.6102 23.2855 50.4206 22.4742 49.9702 21.5184C48.9983 19.3898 47.0466 17.8316 44.7709 17.3496C43.8938 17.1649 40.5593 17.189 39.856 17.3817Z" fill="#D60F0F"/>
<path d="M51.6376 29.1739C51.5033 29.9129 51.2425 31.2783 51.0687 32.2101C50.8948 33.1338 50.6657 34.3628 50.5472 34.933L50.3496 35.9612L50.5313 36.154C50.6341 36.2503 52.6095 37.897 54.9089 39.8006C57.6112 42.0416 59.2469 43.3429 59.5314 43.4794C60.3689 43.881 61.4673 43.7124 62.1784 43.0778C62.6841 42.628 62.9449 42.0738 62.9923 41.3589C63.0397 40.628 62.8738 40.1059 62.4471 39.6079C62.2653 39.407 60.1398 37.5435 57.7219 35.4712L53.3127 31.696L52.9493 30.6679C52.7517 30.1056 52.4594 29.2622 52.2934 28.7964C52.1354 28.3305 51.9774 27.9208 51.9457 27.8887C51.9141 27.8566 51.7798 28.4349 51.6376 29.1739Z" fill="#D60F0F"/>
<path d="M36.0634 45.4305C36.016 45.6233 35.7632 46.5069 35.5103 47.3904C35.0599 48.9808 34.4673 51.0612 33.8905 53.0934C33.7245 53.6637 33.5586 54.2099 33.5112 54.2982C33.4717 54.3866 31.8992 56.8445 30.0186 59.7602C28.1459 62.6759 26.2574 65.5997 25.8308 66.2664C24.7482 67.9451 24.6455 68.1861 24.6455 69.0375C24.6455 69.6078 24.6771 69.7925 24.8589 70.1781C25.1354 70.7885 25.6332 71.3187 26.1784 71.5837C26.5656 71.7846 26.7078 71.8086 27.3716 71.8086C28.0195 71.8086 28.1855 71.7765 28.5647 71.5998C28.8176 71.4793 29.1495 71.2464 29.3154 71.0697C29.4892 70.901 31.6464 68.0174 34.1196 64.6599L38.6157 58.5714L39.2794 57.0774C39.6429 56.2581 39.9906 55.4709 40.0538 55.3424C40.1091 55.2059 40.3224 54.732 40.52 54.2741L40.8834 53.4468L38.6236 49.4146C37.3751 47.1976 36.3084 45.3181 36.2531 45.2297C36.1662 45.0932 36.1424 45.1173 36.0634 45.4305Z" fill="#D60F0F"/>
<path d="M8.64411 62.6202C7.60109 62.7086 6.77932 63.1262 5.94964 63.9696C5.00934 64.9255 4.61426 65.8974 4.61426 67.2308C4.61426 68.5641 5.00934 69.536 5.94964 70.4919C6.88204 71.4397 7.90135 71.8654 9.22884 71.8574C10.4536 71.8493 11.4571 71.4156 12.3658 70.4919C13.3298 69.52 13.7091 68.5962 13.7091 67.2308C13.7091 65.8974 13.2982 64.8853 12.3816 63.9536C11.3702 62.9335 10.1296 62.4837 8.64411 62.6202Z" fill="#D60F0F"/>
</svg>
