<svg width="151" height="54" viewBox="0 0 151 54" fill="none" xmlns="http://www.w3.org/2000/svg">
<path d="M23.0365 31.5547C22.5934 30.8901 23.0698 30 23.8685 30H144C144.552 30 145 30.4477 145 31V53C145 53.5523 144.552 54 144 54H23.8685C23.0698 54 22.5934 53.1099 23.0365 52.4453L29.6302 42.5547C29.8541 42.2188 29.8541 41.7812 29.6302 41.4453L23.0365 31.5547Z" fill="#EE941A"/>
<path d="M0.843337 7.49206C0.466549 6.82543 0.948159 6 1.7139 6H113C113.552 6 114 6.44772 114 7V31C114 31.5523 113.552 32 113 32H1.54416C0.819124 32 0.335065 31.2525 0.631646 30.5909L6.29327 17.9612C6.42326 17.6712 6.40769 17.3367 6.25133 17.06L0.843337 7.49206Z" fill="url(#paint0_radial_2895_3822)"/>
<circle cx="125.5" cy="25.5" r="24.5" fill="url(#paint1_linear_2895_3822)" stroke="#F6F4EF" stroke-width="2"/>
<path d="M20.8641 24.154C20.0521 24.154 19.3521 24.0233 18.7641 23.762C18.1855 23.4913 17.6535 23.0853 17.1681 22.544L18.5961 21.13C18.9135 21.494 19.2635 21.7787 19.6461 21.984C20.0381 22.18 20.4908 22.278 21.0041 22.278C21.4708 22.278 21.8301 22.194 22.0821 22.026C22.3435 21.858 22.4741 21.6247 22.4741 21.326C22.4741 21.0553 22.3901 20.836 22.2221 20.668C22.0541 20.5 21.8301 20.3553 21.5501 20.234C21.2795 20.1127 20.9761 19.996 20.6401 19.884C20.3135 19.772 19.9868 19.646 19.6601 19.506C19.3335 19.3567 19.0301 19.1747 18.7501 18.96C18.4795 18.736 18.2601 18.4607 18.0921 18.134C17.9241 17.798 17.8401 17.378 17.8401 16.874C17.8401 16.2673 17.9848 15.7447 18.2741 15.306C18.5728 14.8673 18.9835 14.536 19.5061 14.312C20.0288 14.0787 20.6308 13.962 21.3121 13.962C22.0028 13.962 22.6328 14.0833 23.2021 14.326C23.7808 14.5687 24.2568 14.9 24.6301 15.32L23.2021 16.734C22.9035 16.426 22.6001 16.1973 22.2921 16.048C21.9935 15.8987 21.6528 15.824 21.2701 15.824C20.8875 15.824 20.5841 15.8987 20.3601 16.048C20.1361 16.188 20.0241 16.3933 20.0241 16.664C20.0241 16.916 20.1081 17.1213 20.2761 17.28C20.4441 17.4293 20.6635 17.56 20.9341 17.672C21.2141 17.784 21.5175 17.896 21.8441 18.008C22.1801 18.12 22.5115 18.2507 22.8381 18.4C23.1648 18.5493 23.4635 18.7407 23.7341 18.974C24.0141 19.198 24.2381 19.4873 24.4061 19.842C24.5741 20.1873 24.6581 20.6167 24.6581 21.13C24.6581 22.0727 24.3221 22.8147 23.6501 23.356C22.9781 23.888 22.0495 24.154 20.8641 24.154ZM28.8872 24.14C28.2619 24.14 27.7019 23.986 27.2072 23.678C26.7219 23.37 26.3346 22.95 26.0452 22.418C25.7652 21.886 25.6252 21.2793 25.6252 20.598C25.6252 19.9167 25.7652 19.31 26.0452 18.778C26.3346 18.246 26.7219 17.826 27.2072 17.518C27.7019 17.21 28.2619 17.056 28.8872 17.056C29.3446 17.056 29.7552 17.1447 30.1192 17.322C30.4926 17.4993 30.7959 17.7467 31.0292 18.064C31.2626 18.372 31.3932 18.7267 31.4212 19.128V22.068C31.3932 22.4693 31.2626 22.8287 31.0292 23.146C30.8052 23.454 30.5066 23.6967 30.1332 23.874C29.7599 24.0513 29.3446 24.14 28.8872 24.14ZM29.3212 22.208C29.7786 22.208 30.1472 22.0587 30.4272 21.76C30.7072 21.452 30.8472 21.0647 30.8472 20.598C30.8472 20.2807 30.7819 20.0007 30.6512 19.758C30.5299 19.5153 30.3526 19.3287 30.1192 19.198C29.8952 19.058 29.6339 18.988 29.3352 18.988C29.0366 18.988 28.7706 19.058 28.5372 19.198C28.3132 19.3287 28.1312 19.5153 27.9912 19.758C27.8606 20.0007 27.7952 20.2807 27.7952 20.598C27.7952 20.906 27.8606 21.1813 27.9912 21.424C28.1219 21.6667 28.3039 21.858 28.5372 21.998C28.7706 22.138 29.0319 22.208 29.3212 22.208ZM30.7632 24V22.166L31.0852 20.514L30.7632 18.862V17.196H32.8632V24H30.7632ZM36.7374 24L33.8534 17.196H36.1634L38.1234 22.866H37.1154L39.0754 17.196H41.3434L38.4594 24H36.7374ZM45.5075 24.154C44.7702 24.154 44.1122 24.0047 43.5335 23.706C42.9642 23.398 42.5162 22.9733 42.1895 22.432C41.8629 21.8907 41.6995 21.2793 41.6995 20.598C41.6995 19.9167 41.8582 19.31 42.1755 18.778C42.5022 18.2367 42.9409 17.812 43.4915 17.504C44.0422 17.196 44.6629 17.042 45.3535 17.042C46.0255 17.042 46.6182 17.1867 47.1315 17.476C47.6449 17.7653 48.0462 18.1667 48.3355 18.68C48.6342 19.1933 48.7835 19.7813 48.7835 20.444C48.7835 20.5653 48.7742 20.696 48.7555 20.836C48.7462 20.9667 48.7229 21.1207 48.6855 21.298L42.8195 21.312V19.842L47.7755 19.828L46.8515 20.444C46.8422 20.052 46.7815 19.73 46.6695 19.478C46.5575 19.2167 46.3895 19.0207 46.1655 18.89C45.9509 18.75 45.6849 18.68 45.3675 18.68C45.0315 18.68 44.7375 18.7593 44.4855 18.918C44.2429 19.0673 44.0515 19.282 43.9115 19.562C43.7809 19.842 43.7155 20.1827 43.7155 20.584C43.7155 20.9853 43.7855 21.3307 43.9255 21.62C44.0749 21.9 44.2802 22.1193 44.5415 22.278C44.8122 22.4273 45.1295 22.502 45.4935 22.502C45.8295 22.502 46.1329 22.446 46.4035 22.334C46.6742 22.2127 46.9122 22.0353 47.1175 21.802L48.2935 22.978C47.9575 23.37 47.5515 23.664 47.0755 23.86C46.5995 24.056 46.0769 24.154 45.5075 24.154ZM57.1035 24.154C56.2915 24.154 55.5728 23.9813 54.9475 23.636C54.3315 23.2907 53.8461 22.8147 53.4915 22.208C53.1461 21.592 52.9735 20.892 52.9735 20.108V14.116H55.1855V20.234C55.1855 20.626 55.2695 20.9667 55.4375 21.256C55.6055 21.5453 55.8341 21.7693 56.1235 21.928C56.4221 22.0773 56.7488 22.152 57.1035 22.152C57.4768 22.152 57.8035 22.0773 58.0835 21.928C58.3635 21.7693 58.5828 21.55 58.7415 21.27C58.9095 20.9807 58.9935 20.64 58.9935 20.248V14.116H61.2055V20.122C61.2055 20.906 61.0328 21.6013 60.6875 22.208C60.3421 22.8147 59.8615 23.2907 59.2455 23.636C58.6295 23.9813 57.9155 24.154 57.1035 24.154ZM66.9056 24.14C66.4482 24.14 66.0282 24.0513 65.6456 23.874C65.2629 23.6967 64.9502 23.454 64.7076 23.146C64.4649 22.8287 64.3249 22.4693 64.2876 22.068V19.198C64.3249 18.7967 64.4649 18.4327 64.7076 18.106C64.9502 17.7793 65.2629 17.5227 65.6456 17.336C66.0282 17.1493 66.4482 17.056 66.9056 17.056C67.5496 17.056 68.1189 17.21 68.6136 17.518C69.1176 17.826 69.5096 18.246 69.7896 18.778C70.0789 19.31 70.2236 19.9167 70.2236 20.598C70.2236 21.2793 70.0789 21.886 69.7896 22.418C69.5096 22.95 69.1176 23.37 68.6136 23.678C68.1189 23.986 67.5496 24.14 66.9056 24.14ZM62.9856 26.87V17.196H65.1276V18.946L64.7776 20.598L65.0996 22.25V26.87H62.9856ZM66.5136 22.208C66.8216 22.208 67.0876 22.138 67.3116 21.998C67.5449 21.858 67.7269 21.6667 67.8576 21.424C67.9882 21.1813 68.0536 20.906 68.0536 20.598C68.0536 20.2807 67.9882 20.0007 67.8576 19.758C67.7269 19.5153 67.5449 19.3287 67.3116 19.198C67.0876 19.058 66.8262 18.988 66.5276 18.988C66.2289 18.988 65.9629 19.058 65.7296 19.198C65.5056 19.3287 65.3282 19.5153 65.1976 19.758C65.0669 20.0007 65.0016 20.2807 65.0016 20.598C65.0016 20.906 65.0622 21.1813 65.1836 21.424C65.3142 21.6667 65.4962 21.858 65.7296 21.998C65.9629 22.138 66.2242 22.208 66.5136 22.208ZM76.825 24V14.256H79.023V24H76.825ZM73.731 16.034V14.116H82.117V16.034H73.731ZM85.0214 24.154C84.3214 24.154 83.6868 24 83.1174 23.692C82.5574 23.3747 82.1141 22.9453 81.7874 22.404C81.4608 21.8627 81.2974 21.256 81.2974 20.584C81.2974 19.912 81.4608 19.31 81.7874 18.778C82.1141 18.246 82.5574 17.826 83.1174 17.518C83.6774 17.2007 84.3121 17.042 85.0214 17.042C85.7308 17.042 86.3654 17.196 86.9254 17.504C87.4854 17.812 87.9288 18.2367 88.2554 18.778C88.5821 19.31 88.7454 19.912 88.7454 20.584C88.7454 21.256 88.5821 21.8627 88.2554 22.404C87.9288 22.9453 87.4854 23.3747 86.9254 23.692C86.3654 24 85.7308 24.154 85.0214 24.154ZM85.0214 22.208C85.3294 22.208 85.6001 22.1427 85.8334 22.012C86.0668 21.872 86.2441 21.6807 86.3654 21.438C86.4961 21.186 86.5614 20.9013 86.5614 20.584C86.5614 20.2667 86.4961 19.9913 86.3654 19.758C86.2348 19.5153 86.0528 19.3287 85.8194 19.198C85.5954 19.058 85.3294 18.988 85.0214 18.988C84.7228 18.988 84.4568 19.058 84.2234 19.198C83.9901 19.3287 83.8081 19.5153 83.6774 19.758C83.5468 20.0007 83.4814 20.2807 83.4814 20.598C83.4814 20.906 83.5468 21.186 83.6774 21.438C83.8081 21.6807 83.9901 21.872 84.2234 22.012C84.4568 22.1427 84.7228 22.208 85.0214 22.208Z" fill="white"/>
<path d="M38.1949 47V45.306H40.0649C40.5049 45.306 40.8863 45.2217 41.2089 45.053C41.5389 44.8843 41.7919 44.635 41.9679 44.305C42.1439 43.9677 42.2319 43.5607 42.2319 43.084C42.2319 42.6147 42.1403 42.2187 41.9569 41.896C41.7809 41.566 41.5316 41.3167 41.2089 41.148C40.8863 40.9793 40.5049 40.895 40.0649 40.895H38.1069V39.201H40.0759C40.6773 39.201 41.2309 39.2963 41.7369 39.487C42.2429 39.6703 42.6829 39.9343 43.0569 40.279C43.4309 40.6237 43.7206 41.0343 43.9259 41.511C44.1386 41.9877 44.2449 42.5157 44.2449 43.095C44.2449 43.6817 44.1386 44.2133 43.9259 44.69C43.7206 45.1667 43.4309 45.5773 43.0569 45.922C42.6829 46.2667 42.2429 46.5343 41.7369 46.725C41.2383 46.9083 40.6919 47 40.0979 47H38.1949ZM36.8639 47V39.201H38.8329V47H36.8639ZM45.6721 47V39.201H47.6411V47H45.6721ZM51.7553 47.121C51.1026 47.121 50.5343 47.022 50.0503 46.824C49.5736 46.626 49.1373 46.3143 48.7413 45.889L49.9843 44.635C50.2556 44.921 50.5453 45.141 50.8533 45.295C51.1613 45.4417 51.5096 45.515 51.8983 45.515C52.2283 45.515 52.4813 45.46 52.6573 45.35C52.8406 45.2327 52.9323 45.075 52.9323 44.877C52.9323 44.6937 52.8663 44.5433 52.7343 44.426C52.6023 44.3013 52.4263 44.195 52.2063 44.107C51.9936 44.0117 51.7553 43.9237 51.4913 43.843C51.2346 43.755 50.9743 43.6523 50.7103 43.535C50.4536 43.4103 50.2153 43.26 49.9953 43.084C49.7826 42.908 49.6103 42.688 49.4783 42.424C49.3463 42.16 49.2803 41.8337 49.2803 41.445C49.2803 40.9463 49.3976 40.521 49.6323 40.169C49.8743 39.817 50.2079 39.5457 50.6333 39.355C51.0586 39.1643 51.5536 39.069 52.1183 39.069C52.6829 39.069 53.2036 39.1643 53.6803 39.355C54.1569 39.5457 54.5493 39.8097 54.8573 40.147L53.6033 41.39C53.3686 41.1553 53.1303 40.9793 52.8883 40.862C52.6463 40.7447 52.3823 40.686 52.0963 40.686C51.8249 40.686 51.6123 40.7337 51.4583 40.829C51.3043 40.9243 51.2273 41.06 51.2273 41.236C51.2273 41.412 51.2933 41.555 51.4253 41.665C51.5573 41.775 51.7296 41.874 51.9423 41.962C52.1623 42.0427 52.4006 42.127 52.6573 42.215C52.9213 42.303 53.1816 42.4057 53.4383 42.523C53.6949 42.6403 53.9296 42.7907 54.1423 42.974C54.3623 43.1573 54.5383 43.3883 54.6703 43.667C54.8023 43.9457 54.8683 44.283 54.8683 44.679C54.8683 45.4563 54.5933 46.0577 54.0433 46.483C53.5006 46.9083 52.7379 47.121 51.7553 47.121ZM60.1545 47.121C59.5605 47.121 59.0105 47.022 58.5045 46.824C57.9985 46.6187 57.5548 46.3363 57.1735 45.977C56.7995 45.6103 56.5061 45.1813 56.2935 44.69C56.0881 44.1987 55.9855 43.667 55.9855 43.095C55.9855 42.5157 56.0881 41.984 56.2935 41.5C56.5061 41.0087 56.7995 40.5833 57.1735 40.224C57.5548 39.8647 57.9948 39.5823 58.4935 39.377C58.9995 39.1717 59.5458 39.069 60.1325 39.069C60.7485 39.069 61.3021 39.168 61.7935 39.366C62.2848 39.5567 62.7175 39.8243 63.0915 40.169L61.7715 41.489C61.5881 41.2837 61.3608 41.1223 61.0895 41.005C60.8181 40.8877 60.4991 40.829 60.1325 40.829C59.8171 40.829 59.5275 40.8803 59.2635 40.983C59.0068 41.0857 58.7831 41.2397 58.5925 41.445C58.4018 41.643 58.2515 41.8813 58.1415 42.16C58.0388 42.4387 57.9875 42.7503 57.9875 43.095C57.9875 43.4397 58.0388 43.7513 58.1415 44.03C58.2515 44.3087 58.4018 44.5507 58.5925 44.756C58.7831 44.954 59.0068 45.108 59.2635 45.218C59.5275 45.3207 59.8171 45.372 60.1325 45.372C60.4991 45.372 60.8218 45.317 61.1005 45.207C61.3791 45.0897 61.6175 44.9247 61.8155 44.712L63.1355 46.032C62.7541 46.3767 62.3215 46.6443 61.8375 46.835C61.3608 47.0257 60.7998 47.121 60.1545 47.121ZM67.9101 47.143C67.3088 47.143 66.7551 47.0403 66.2491 46.835C65.7431 46.6297 65.2995 46.3437 64.9181 45.977C64.5441 45.6103 64.2508 45.1813 64.0381 44.69C63.8255 44.1913 63.7191 43.656 63.7191 43.084C63.7191 42.512 63.8218 41.984 64.0271 41.5C64.2398 41.0087 64.5331 40.5797 64.9071 40.213C65.2811 39.8463 65.7211 39.564 66.2271 39.366C66.7331 39.1607 67.2868 39.058 67.8881 39.058C68.4895 39.058 69.0431 39.1607 69.5491 39.366C70.0551 39.564 70.4951 39.8463 70.8691 40.213C71.2431 40.5797 71.5328 41.0087 71.7381 41.5C71.9508 41.9913 72.0571 42.523 72.0571 43.095C72.0571 43.667 71.9508 44.1987 71.7381 44.69C71.5328 45.1813 71.2431 45.614 70.8691 45.988C70.4951 46.3547 70.0551 46.6407 69.5491 46.846C69.0505 47.044 68.5041 47.143 67.9101 47.143ZM67.8881 45.383C68.3281 45.383 68.7095 45.2877 69.0321 45.097C69.3548 44.9063 69.6041 44.6387 69.7801 44.294C69.9561 43.9493 70.0441 43.546 70.0441 43.084C70.0441 42.7467 69.9928 42.4387 69.8901 42.16C69.7948 41.8813 69.6518 41.643 69.4611 41.445C69.2705 41.2397 69.0431 41.082 68.7791 40.972C68.5151 40.862 68.2181 40.807 67.8881 40.807C67.4481 40.807 67.0668 40.9023 66.7441 41.093C66.4215 41.2763 66.1721 41.5403 65.9961 41.885C65.8201 42.2297 65.7321 42.6293 65.7321 43.084C65.7321 43.436 65.7798 43.755 65.8751 44.041C65.9778 44.3197 66.1245 44.5617 66.3151 44.767C66.5058 44.965 66.7331 45.119 66.9971 45.229C67.2611 45.3317 67.5581 45.383 67.8881 45.383ZM76.6939 47.121C76.0339 47.121 75.4509 46.9853 74.9449 46.714C74.4462 46.4353 74.0576 46.0503 73.7789 45.559C73.5002 45.0677 73.3609 44.5103 73.3609 43.887V39.201H75.3189V44.03C75.3189 44.3087 75.3776 44.5507 75.4949 44.756C75.6196 44.954 75.7846 45.108 75.9899 45.218C76.2026 45.3207 76.4372 45.372 76.6939 45.372C76.9579 45.372 77.1889 45.3207 77.3869 45.218C77.5849 45.108 77.7426 44.954 77.8599 44.756C77.9772 44.558 78.0359 44.3197 78.0359 44.041V39.201H80.0159V43.898C80.0159 44.5213 79.8766 45.0787 79.5979 45.57C79.3192 46.054 78.9306 46.4353 78.4319 46.714C77.9406 46.9853 77.3612 47.121 76.6939 47.121ZM81.71 47V39.201H83.085L83.679 40.796V47H81.71ZM87.089 47L82.535 41.214L83.085 39.201L87.65 44.987L87.089 47ZM87.089 47L86.583 45.361V39.201H88.552V47H87.089ZM92.2705 47V39.256H94.2395V47H92.2705ZM89.8835 40.895V39.201H96.6265V40.895H89.8835Z" fill="white"/>
<path d="M113.202 33.22C112.229 33.22 111.335 33.0533 110.522 32.72C109.709 32.3733 109.022 31.88 108.462 31.24L110.482 29.22C110.735 29.5933 111.102 29.9 111.582 30.14C112.075 30.3667 112.595 30.48 113.142 30.48C113.635 30.48 114.062 30.3933 114.422 30.22C114.782 30.0467 115.062 29.8 115.262 29.48C115.475 29.16 115.582 28.78 115.582 28.34C115.582 27.9 115.475 27.5267 115.262 27.22C115.062 26.9 114.762 26.6533 114.362 26.48C113.975 26.3067 113.509 26.22 112.962 26.22C112.709 26.22 112.442 26.24 112.162 26.28C111.895 26.3067 111.669 26.3533 111.482 26.42L112.862 24.68C113.235 24.5733 113.589 24.4867 113.922 24.42C114.269 24.34 114.589 24.3 114.882 24.3C115.602 24.3 116.249 24.4733 116.822 24.82C117.395 25.1533 117.849 25.6333 118.182 26.26C118.529 26.8733 118.702 27.6067 118.702 28.46C118.702 29.3933 118.469 30.22 118.002 30.94C117.549 31.66 116.909 32.22 116.082 32.62C115.269 33.02 114.309 33.22 113.202 33.22ZM111.482 26.42V24.68L114.922 20.64L118.442 20.62L114.862 24.7L111.482 26.42ZM109.342 21.54V18.88H118.442V20.62L115.982 21.54H109.342ZM126.314 33.22C125.18 33.22 124.154 32.9133 123.234 32.3C122.314 31.6867 121.587 30.8333 121.054 29.74C120.534 28.6333 120.274 27.36 120.274 25.92C120.274 24.4667 120.534 23.2 121.054 22.12C121.574 21.0267 122.287 20.18 123.194 19.58C124.1 18.9667 125.127 18.66 126.274 18.66C127.434 18.66 128.467 18.9667 129.374 19.58C130.28 20.18 130.994 21.0267 131.514 22.12C132.047 23.2133 132.314 24.4867 132.314 25.94C132.314 27.3933 132.047 28.6667 131.514 29.76C130.994 30.8533 130.28 31.7067 129.374 32.32C128.48 32.92 127.46 33.22 126.314 33.22ZM126.294 30.44C126.88 30.44 127.387 30.2733 127.814 29.94C128.24 29.5933 128.567 29.0867 128.794 28.42C129.034 27.74 129.154 26.9133 129.154 25.94C129.154 24.9533 129.034 24.1267 128.794 23.46C128.567 22.7933 128.24 22.2933 127.814 21.96C127.387 21.6133 126.874 21.44 126.274 21.44C125.7 21.44 125.194 21.6067 124.754 21.94C124.327 22.2733 124 22.7733 123.774 23.44C123.547 24.1067 123.434 24.9333 123.434 25.92C123.434 26.9067 123.547 27.7333 123.774 28.4C124 29.0667 124.327 29.5733 124.754 29.92C125.194 30.2667 125.707 30.44 126.294 30.44ZM134.128 33L140.05 23.116H142.01L136.088 33H134.128ZM140.316 33.14C139.933 33.14 139.583 33.0467 139.266 32.86C138.958 32.6733 138.711 32.426 138.524 32.118C138.337 31.8007 138.244 31.4507 138.244 31.068C138.244 30.676 138.337 30.3307 138.524 30.032C138.711 29.724 138.958 29.4767 139.266 29.29C139.574 29.1033 139.919 29.01 140.302 29.01C140.703 29.01 141.058 29.1033 141.366 29.29C141.683 29.4767 141.935 29.724 142.122 30.032C142.309 30.3307 142.402 30.676 142.402 31.068C142.402 31.4507 142.309 31.8007 142.122 32.118C141.935 32.4353 141.683 32.6873 141.366 32.874C141.058 33.0513 140.708 33.14 140.316 33.14ZM140.316 31.684C140.493 31.684 140.638 31.628 140.75 31.516C140.862 31.404 140.918 31.2547 140.918 31.068C140.918 30.9 140.862 30.76 140.75 30.648C140.638 30.5267 140.493 30.466 140.316 30.466C140.148 30.466 140.008 30.5267 139.896 30.648C139.784 30.76 139.728 30.9 139.728 31.068C139.728 31.2547 139.784 31.404 139.896 31.516C140.008 31.628 140.148 31.684 140.316 31.684ZM135.808 27.092C135.425 27.092 135.075 27.0033 134.758 26.826C134.45 26.6393 134.203 26.392 134.016 26.084C133.829 25.7667 133.736 25.412 133.736 25.02C133.736 24.6373 133.829 24.292 134.016 23.984C134.203 23.676 134.45 23.4333 134.758 23.256C135.066 23.0693 135.411 22.976 135.794 22.976C136.195 22.976 136.55 23.0693 136.858 23.256C137.175 23.4333 137.427 23.676 137.614 23.984C137.801 24.292 137.894 24.6373 137.894 25.02C137.894 25.412 137.801 25.7667 137.614 26.084C137.427 26.392 137.175 26.6393 136.858 26.826C136.55 27.0033 136.2 27.092 135.808 27.092ZM135.808 25.636C135.985 25.636 136.13 25.58 136.242 25.468C136.354 25.356 136.41 25.2113 136.41 25.034C136.41 24.8567 136.354 24.712 136.242 24.6C136.13 24.488 135.985 24.432 135.808 24.432C135.64 24.432 135.5 24.488 135.388 24.6C135.276 24.712 135.22 24.8567 135.22 25.034C135.22 25.2113 135.276 25.356 135.388 25.468C135.5 25.58 135.64 25.636 135.808 25.636Z" fill="white"/>
<defs>
<radialGradient id="paint0_radial_2895_3822" cx="0" cy="0" r="1" gradientUnits="userSpaceOnUse" gradientTransform="translate(58 19) scale(53 13)">
<stop stop-color="#ED1C22"/>
<stop offset="1" stop-color="#EF1A23"/>
</radialGradient>
<linearGradient id="paint1_linear_2895_3822" x1="125.5" y1="2" x2="125.5" y2="49" gradientUnits="userSpaceOnUse">
<stop stop-color="#D60F0F"/>
<stop offset="1" stop-color="#700808"/>
</linearGradient>
</defs>
</svg>
