<svg width="23" height="25" viewBox="0 0 23 25" fill="none" xmlns="http://www.w3.org/2000/svg">
<g clip-path="url(#clip0_1745_1275)">
<path d="M12.1485 13.8048C13.3542 10.249 14.5802 6.7032 15.8771 3.18727C16.3939 1.77292 17.5185 0.856587 18.9877 0.438261C20.8925 -0.0995879 22.615 1.07571 22.8177 3.0279C22.9696 4.50201 22.5947 5.80679 21.5613 6.96216C18.0049 10.8865 14.4992 14.8506 10.9732 18.8048C10.8009 18.994 10.6388 19.1733 10.4666 19.3626C11.0238 17.5 11.5304 15.6275 12.1485 13.8048Z" fill="#D81818"/>
<path d="M8.26787 19.2231C8.15641 19.0737 8.07536 18.994 8.01456 18.8944C5.37007 14.7709 2.83703 10.5777 0.618088 6.21515C-0.0101059 4.98009 2.5357e-05 3.68527 0.628219 2.44025C1.31721 1.07571 2.78637 0.577701 4.16434 1.26495C5.68417 2.02192 6.39342 3.30679 6.5758 4.96017C6.96082 8.52591 7.4269 12.0817 7.85245 15.6375C7.98417 16.8128 8.11588 17.9781 8.26787 19.2231Z" fill="#D81818"/>
<path d="M11.3176 24.8107C11.7229 24.4721 12.0167 24.2032 12.3308 23.9641C14.6004 22.2311 16.8599 20.488 19.1498 18.7649C19.9401 18.1773 20.852 18.0578 21.7841 18.3765C22.7568 18.7052 23.1824 19.6115 22.8379 20.5777C22.5238 21.4342 21.926 22.0617 21.0242 22.3008C17.9339 23.1275 14.8335 23.9342 11.733 24.741C11.6419 24.7609 11.5405 24.7709 11.3176 24.8107Z" fill="#D81818"/>
</g>
<defs>
<clipPath id="clip0_1745_1275">
<rect width="23" height="25" fill="white"/>
</clipPath>
</defs>
</svg>
