<svg width="31" height="31" viewBox="0 0 31 31" fill="none" xmlns="http://www.w3.org/2000/svg">
<path d="M30.4532 15.2322C30.4532 22.9251 24.7524 29.285 17.3467 30.3171C16.6542 30.4131 15.9457 30.4633 15.2266 30.4633C14.3965 30.4633 13.5814 30.3971 12.7875 30.269C5.53753 29.1014 0 22.813 0 15.2322C0 6.8199 6.81788 0 15.2277 0C23.6375 0 30.4554 6.8199 30.4554 15.2322H30.4532Z" fill="#1C1C1B"/>
<path d="M6.17266 6.71777L13.1954 16.1098L6.12891 23.7462H7.71975L13.9071 17.0608L18.9058 23.7462H24.3185L16.901 13.8258L23.4788 6.71777H21.8879L16.1903 12.8749L11.5864 6.71777H6.17371H6.17266ZM8.51143 7.88964H10.9975L21.9776 22.5743H19.4915L8.51143 7.88964Z" fill="white"/>
</svg>
