<svg width="33" height="33" viewBox="0 0 33 33" fill="none" xmlns="http://www.w3.org/2000/svg">
<path d="M32.6484 16.3242C32.6484 25.3398 25.3398 32.6484 16.3242 32.6484C7.3086 32.6484 0 25.3398 0 16.3242C0 7.3086 7.3086 0 16.3242 0C25.3398 0 32.6484 7.3086 32.6484 16.3242Z" fill="#FE0008"/>
<path d="M23.9625 12.9903C23.8777 12.6513 23.7049 12.3408 23.4616 12.09C23.2184 11.8392 22.9132 11.657 22.577 11.5619C21.3486 11.262 16.435 11.262 16.435 11.262C16.435 11.262 11.5214 11.262 10.293 11.5905C9.95683 11.6856 9.65168 11.8678 9.40841 12.1186C9.16514 12.3694 8.99235 12.6799 8.90752 13.0189C8.6827 14.2655 8.57273 15.5301 8.57899 16.7969C8.57098 18.0732 8.68095 19.3475 8.90752 20.6035C9.00105 20.9319 9.1777 21.2306 9.4204 21.4709C9.66311 21.7111 9.96367 21.8846 10.293 21.9747C11.5214 22.3033 16.435 22.3033 16.435 22.3033C16.435 22.3033 21.3486 22.3033 22.577 21.9747C22.9132 21.8796 23.2184 21.6975 23.4616 21.4467C23.7049 21.1959 23.8777 20.8853 23.9625 20.5464C24.1856 19.3091 24.2956 18.0541 24.2911 16.7969C24.2991 15.5206 24.1891 14.2463 23.9625 12.9903Z" fill="white"/>
<path d="M14.8284 19.132L18.935 16.7966L14.8284 14.4612V19.132Z" fill="#FE0008"/>
</svg>
